<svg id="Layer_1" data-name="Layer 1" xmlns="http://www.w3.org/2000/svg" viewBox="0 0 143 98"><defs><style>.cls-1{fill:#f68e21;}.cls-2{fill:#7c51a0;}</style></defs><title>logo-name</title><path class="cls-1" d="M38.44,15a3.22,3.22,0,0,1-4.71-.52s.55,3.52-1.41,5c-2.44,1.82-7.39-2.33-7.39-2.33s2.63,5.89.18,7.71c-1.95,1.46-5.19-.05-5.19-.05a3.18,3.18,0,0,1-.82,4.64c-2.79,2.09-11.57-2.78-11.57-2.78l13,8.67,11.59-8.65,11.59-8.65L39,3.22S41.23,13,38.44,15Z"/><polygon class="cls-1" points="21.41 36.02 24.26 37.77 45.25 22.11 44.25 18.98 21.41 36.02"/><polygon class="cls-2" points="24.99 30.83 24.55 28.58 22.7 27.92 22.85 29.86 24.99 30.83"/><polygon class="cls-2" points="37.86 21.23 37.41 18.98 35.57 18.32 35.72 20.26 37.86 21.23"/><polygon class="cls-2" points="31.6 25.9 31.16 23.65 29.31 22.99 29.46 24.93 31.6 25.9"/><polygon class="cls-2" points="26.11 16.23 26.31 19 23.69 18.04 23.5 15.28 26.11 16.23"/><ellipse class="cls-2" cx="8.05" cy="26.96" rx="0.72" ry="0.72"/><ellipse class="cls-2" cx="19.73" cy="24.81" rx="0.72" ry="0.72"/><ellipse class="cls-2" cx="33.7" cy="14.38" rx="0.72" ry="0.72"/><ellipse class="cls-2" cx="38.99" cy="3.22" rx="0.72" ry="0.72"/><path class="cls-2" d="M131.57,90c-1.09-3.43-20.3-20.84-53.82-10.25-5.86,1.64-12.25,4-16.45,5.59a29.08,29.08,0,0,1-10.2,2.1c-18.49.17-22.24-9.89-22.27-18a27.1,27.1,0,0,1,3.28-12.64c10.18-19.4,30-26.27,32.54-26.88s3.06,1,2.77,2.64c-.92,5-7.8,13.68-12.62,16.23,0,0-.91,1.44,1,1.4s22.52-13.54,12.87-22C55.1,16.26,26.85,37.63,20.88,53.88,7.19,93.06,45.37,95.59,60.13,89.44c.61-.25,5.39-2.07,5.95-2.3,8.39-3.37,41.63-15.23,56.3,7.14a3,3,0,0,0,3.62,1C128.61,94.3,132.34,92.44,131.57,90Z"/><path class="cls-2" d="M124.22,56.12c-1.56,0-.89,3.54-1,5-.49,5.25-7.29,8.85-8.91,8.81s-6-2.17-3.43-10.9,15.34-20.36,8.72-21.19c-7.84-.61-17.36,20-17.58,17.23s7.68-18.67,3.91-19.41c-6.35-.58-22.16,34.12-25,37.18-2.48,2.7-.57-12.94.08-15.54,9-2.39,9.87-8.15,8.46-7.25s-2.58,2.69-7.82,4.78c1.88-7,4.18-14.05,3.08-14.27-2.07-.41-1.68.61-13.53,16.57l-.66.87-1,.21c-16.38,3.3-19,9.16-19,9.16s-5,8.06,3.7,9c7.15.8,15-9.28,20.14-17.48.83-.24,1.66-.47,2.46-.67-3,9-.06,21.63,6,16.3,7.25-8.28,10.35-16,12.46-20.42a.21.21,0,0,1,.39.12c-.45,2.84,1.25,6.75,3.44,7,2.84.1,7.7-5.54,7.7-5.54a36.18,36.18,0,0,0-.75,3.89c-.49,4.72-2,13.14,7.72,14s13.55-6.1,13.93-10.13S126.67,56,124.22,56.12Zm-71,14.79c-.39-2.7,6.93-6.86,15-9.91C58.45,73.11,53.63,73.71,53.22,70.91Zm26.87-22.1s1.57-3.39-2.54,7.45l-1.81.51C78.41,52.3,80.09,48.81,80.09,48.81Z"/></svg>