<svg id="Layer_1" data-name="Layer 1" xmlns="http://www.w3.org/2000/svg" viewBox="0 0 125 94"><defs><style>.cls-1{fill:#f68e21;}.cls-2{fill:#7c51a0;}</style></defs><title>logo-name-01</title><path class="cls-1" d="M31.44,13a3.22,3.22,0,0,1-4.71-.52s.55,3.52-1.41,5c-2.44,1.82-7.39-2.33-7.39-2.33s2.63,5.89.18,7.71c-1.95,1.46-5.19-.05-5.19-.05a3.18,3.18,0,0,1-.82,4.64C9.31,29.56.53,24.69.53,24.69l13,8.67,11.59-8.65,11.59-8.65L32,1.22S34.23,11,31.44,13Z"/><polygon class="cls-1" points="14.41 34.02 17.26 35.77 38.25 20.11 37.25 16.98 14.41 34.02"/><polygon class="cls-2" points="17.99 28.83 17.55 26.58 15.7 25.92 15.85 27.86 17.99 28.83"/><polygon class="cls-2" points="30.86 19.23 30.41 16.98 28.57 16.32 28.71 18.26 30.86 19.23"/><polygon class="cls-2" points="24.6 23.9 24.16 21.65 22.31 20.99 22.46 22.93 24.6 23.9"/><polygon class="cls-2" points="19.11 14.23 19.31 17 16.69 16.04 16.5 13.28 19.11 14.23"/><ellipse class="cls-2" cx="1.05" cy="24.96" rx="0.72" ry="0.72"/><ellipse class="cls-2" cx="12.73" cy="22.81" rx="0.72" ry="0.72"/><ellipse class="cls-2" cx="26.7" cy="12.38" rx="0.72" ry="0.72"/><ellipse class="cls-2" cx="31.99" cy="1.22" rx="0.72" ry="0.72"/><path class="cls-2" d="M124.57,88c-1.09-3.43-20.3-20.84-53.82-10.25-5.86,1.64-12.25,4-16.45,5.59a29.08,29.08,0,0,1-10.2,2.1c-18.49.17-22.24-9.89-22.27-18a27.1,27.1,0,0,1,3.28-12.64c10.18-19.4,30-26.27,32.54-26.88s3.06,1,2.77,2.64c-.92,5-7.8,13.68-12.62,16.23,0,0-.91,1.44,1,1.4s22.52-13.54,12.87-22c-13.56-12-41.81,9.42-47.78,25.67C.19,91.06,38.37,93.59,53.13,87.44c.61-.25,5.39-2.07,5.95-2.3,8.39-3.37,41.63-15.23,56.3,7.14a3,3,0,0,0,3.62,1C121.61,92.3,125.34,90.44,124.57,88Z"/><path class="cls-2" d="M117.22,54.12c-1.56,0-.89,3.54-1,5-.49,5.25-7.29,8.85-8.91,8.81s-6-2.17-3.43-10.9,15.34-20.36,8.72-21.19c-7.84-.61-17.36,20-17.58,17.23s7.68-18.67,3.91-19.41c-6.35-.58-22.16,34.12-25,37.18-2.48,2.7-.57-12.94.08-15.54,9-2.39,9.87-8.15,8.46-7.25s-2.58,2.69-7.82,4.78c1.88-7,4.18-14.05,3.08-14.27-2.07-.41-1.68.61-13.53,16.57l-.66.87-1,.21c-16.38,3.3-19,9.16-19,9.16s-5,8.06,3.7,9c7.15.8,15-9.28,20.14-17.48.83-.24,1.66-.47,2.46-.67-3,9-.06,21.63,6,16.3,7.25-8.28,10.35-16,12.46-20.42a.21.21,0,0,1,.39.12c-.45,2.84,1.25,6.75,3.44,7,2.84.1,7.7-5.54,7.7-5.54a36.18,36.18,0,0,0-.75,3.89c-.49,4.72-2,13.14,7.72,14s13.55-6.1,13.93-10.13S119.67,54,117.22,54.12Zm-71,14.79c-.39-2.7,6.93-6.86,15-9.91C51.45,71.11,46.63,71.71,46.22,68.91Zm26.87-22.1s1.57-3.39-2.54,7.45l-1.81.51C71.41,50.3,73.09,46.81,73.09,46.81Z"/></svg>