<svg id="Layer_1" data-name="Layer 1" xmlns="http://www.w3.org/2000/svg" viewBox="0 0 1361.99 1101.37"><defs><style>.cls-1{fill:#f78f21;}.cls-2{fill:#7c51a1;}</style></defs><path class="cls-1" d="M354.31,98.2c-20.31,15.77-34.7-3.27-34.7-3.27s4.46,26-9.74,37c-17.74,13.77-54.68-16.39-54.68-16.39s20.05,43.27,2.3,57.05c-14.19,11-38.23.26-38.23.26s14.87,18.66-5.44,34.42-85.48-19.16-85.48-19.16l96.79,62.55,84.2-65.36,84.2-65.35L357,10.65S374.63,82.43,354.31,98.2Z"/><polygon class="cls-1" points="231.6 255.43 252.75 268.03 405.24 149.67 397.55 126.62 231.6 255.43"/><polygon class="cls-2" points="257.3 216.62 253.76 200.02 240.08 195.35 241.41 209.72 257.3 216.62"/><polygon class="cls-2" points="350.8 144.04 347.26 127.45 333.58 122.78 334.91 137.15 350.8 144.04"/><polygon class="cls-2" points="305.32 179.34 301.78 162.75 288.1 158.08 289.43 172.45 305.32 179.34"/><polygon class="cls-2" points="263.8 108.47 265.56 128.89 246.22 122.12 244.46 101.7 263.8 108.47"/><circle class="cls-2" cx="132.21" cy="190.02" r="5.3"/><circle class="cls-2" cx="217.87" cy="172.66" r="5.3"/><circle class="cls-2" cx="319.41" cy="93.85" r="5.3"/><circle class="cls-2" cx="356.95" cy="10.65" r="5.3"/><path class="cls-2" d="M1048.34,641.88c-8.46-25.22-151.79-151.76-397.1-69.42-42.93,12.84-89.61,30.86-120.33,43.35-23.82,9.69-49,16.06-74.74,16.71-136,3.45-164.81-70.52-166-130.42-.66-32.57,8.07-64.83,22.66-94C385.3,263.44,530.15,210.28,548.9,205.46c18.51-4.76,22.64,7.19,20.66,19.19-6.12,37.16-55.68,102.13-90.84,121.57,0,0-6.53,10.74,7.48,10.27s164-102.86,92-164.46C477.05,105.22,271.8,266.66,229.84,387.65,133.8,679.15,415,693.28,522.81,646c4.44-1.95,39.37-15.93,43.44-17.72,61.35-26,304.44-117.69,415,46.13,5.7,8.43,17.26,10.71,26.72,6.95C1027.07,673.83,1054.29,659.63,1048.34,641.88Z"/><path class="cls-2" d="M990.18,391.9c-11.49.15-6.12,26.26-6.95,37.14-3,38.89-52.53,66.39-64.46,66.3S874.5,480,892.21,415.1s110.37-152.46,61.62-157.83c-57.74-3.58-125.31,149.85-127.26,129.54s54.26-139,26.46-144c-46.84-3.57-158.93,255-179.26,278.06-17.89,20.28-5.7-95.68-1.22-115,66-18.79,71.55-61.49,61.33-54.68-9.51,6.32-18.67,20.22-56.92,36.33,12.95-51.9,29.06-104.43,20.88-105.94-15.22-2.81-12.27,4.72-97.53,124.21-1.63,2.29-3.14,4.26-4.74,6.47-2.44.56-4.66,1.12-7.19,1.67C468.3,440.29,449.93,484,449.93,484s-35.66,60.23,28.26,66.34c52.73,5,109.18-70.43,146-131.72,6.12-1.89,12.14-3.65,18-5.22-20.81,67.13,2.13,160,46.2,119.82,52.36-62.13,74.28-119.37,89.24-152.54a1.51,1.51,0,0,1,2.88.85c-3,21,10,49.8,26.1,51,21,.36,56-41.89,56-41.89s-4,17.52-5,28.81c-3,35-13.47,97.5,58.47,103s98.94-46.77,101.22-76.63S1008.2,390.78,990.18,391.9ZM469.77,509.77c-3.19-20,50.12-51.59,109-75.09C508.44,525.45,473.06,530.45,469.77,509.77Zm195-166.69s11.09-25.29-17.79,55.37c-4.16,1.32-8.63,2.66-13.26,4C652.78,369.05,664.75,343.08,664.75,343.08Z"/><path class="cls-2" d="M0,1076c54.19-19.29,110.11-32.57,166.34-43.76,56.2-11.52,113.07-19.37,170-26.1,114-12.78,228.87-16.63,343.53-15.2l86,2.78c28.65,1.08,57.21,3.83,85.82,5.66,57.29,3.1,114.17,10.62,171.17,16.75,57,6.36,113.46,16.56,170.2,24.66L1362,1072.89l-.54,2.59c-57.34-5.57-113.84-14.61-170.71-20.92-56.92-5.75-113.44-13.89-170.36-18-113.62-9.77-227.18-19.1-341-19.22-113.69-3.51-227.42.41-340.8,9.18-56.67,4.48-113.36,10.28-169.56,19.38A1404.39,1404.39,0,0,0,1,1078.44Z"/><path class="cls-1" d="M151.06,949.18a6.79,6.79,0,0,1-3,1.42c-5.24,1.22-10.53-3.43-13.16-4.46a2.81,2.81,0,0,1-1.75-2c-.36-1.57.8-3.66,2.58-5.54,1.47-1.63,14.78-17,14.16-19.61-.1-.52-.67-.6-1.55-.39-55,12.75-88.85,95.62-86.74,104.85a.49.49,0,0,0,.65.42,11.25,11.25,0,0,0,1.68-.75c13-4.85,36-28.36,39.32-32.23,3.48-3.94,21.15-27.47,25.87-34.8,1.53-2.19,3.1-3.28,4.49-3.61,3.33-.78,6.56,2.14,9.73,4,2.32,1.29,3,2,3.25,2.91.8,3.48-27.09,58.93-27.09,58.93l-21.16,46.54a11.16,11.16,0,0,0-1,2.79c0,.18,1.57.39,1.93,2a3.61,3.61,0,0,1,.08,2c-1.94,9.8-16.85,23.89-21.7,28.33a4.84,4.84,0,0,1-2.45,1.29c-5.57,1.29-10.45-6.38-11.22-9.68a23.2,23.2,0,0,1-.39-3.22c.18-3.15,3.56-14.76,6.48-22,3-7.51,22.31-41.51,22.31-41.51-13.83,14.76-25.59,17.85-30.83,19.07-9.91,2.29-13-3.95-16.54-8.11a26.6,26.6,0,0,1-5.67-11C30.39,985.92,86.17,913,142.23,900c14.12-3.25,20.57,3.15,21.16,5.76A18.45,18.45,0,0,1,170,916C173.61,931.67,151.06,949.18,151.06,949.18Z"/><path class="cls-1" d="M213.29,987.47c2.48-.44,2.63,2.43,4.33,4.85a8.18,8.18,0,0,1,1.63,3c.2,1-3.69,4.67-4.67,5.39-2,2-19.87,18.86-25.18,22.73-5.47,3.89-18.09,11.63-24,13.08a8.33,8.33,0,0,1-7.71-2.43,11.65,11.65,0,0,1-2.81-5.49c-1.71-9.34,10.26-21.7,16.59-31.94.15-.21-.47-.62-1.22-.67a14.81,14.81,0,0,0-1.62.1,8.67,8.67,0,0,0-4,1.65c-4.54,5.19-29,25.8-37,34.7a6.26,6.26,0,0,1-2.16,1.11,2.22,2.22,0,0,1-2.14-.69s-2.51-7.93-3-10.2a1.89,1.89,0,0,1,.57-1.93c10-8.18,30.52-24.43,30.21-26.19-.2-1.06-.93-2-1.13-3.25-.34-1.78-.13-4.72,2.71-8.13,3.89-4.54,17.57-15.55,21.7-17.75a7.3,7.3,0,0,1,1.7-.67c2.84-.51,4.15,1.78,4.77,2.22.41.28,2.76,1.14,3.07,2.89a3.48,3.48,0,0,1-.67,2.32c-2.3,3.33-4.44,6.63-4.44,6.63a1.49,1.49,0,0,0,0,.73c0,.36.31.67,1,.54.54-.08,2.4-.8,4.69-1.22s4.65-.46,6.17.91a11.42,11.42,0,0,1,4.08,6.53,5.72,5.72,0,0,1-1.6,5.21c-3.9,3.61-10.19,12-11.92,14.52a23.88,23.88,0,0,0-3.23,6.4,1.67,1.67,0,0,0-.36,1c0,.16.21.13,1.08,0,4.49-1.37,25.39-18.61,29.7-21.93C209,991,212.75,987.58,213.29,987.47Z"/><path class="cls-1" d="M238.93,1013.81s-19.19,16.7-33.87,18.94c-2.3.36-2.63-.67-3.87-1.57a11.39,11.39,0,0,1-3-5.7c-2.4-15.59,13.05-35.51,23.68-51.24a6,6,0,0,1,4-2.61c2.84-.41,6,1.08,8.57,2.68,2,1.32,2.86,2.27,3,3.18a2.61,2.61,0,0,1-.65,1.73c-.93,1-14.09,22.78-15.94,26.13-1,2-1.47,3.3-1.37,4,0,.36.26.49.95.38,4.83-2.89,10-6.78,10-6.78l23.74-17.73c.65-.46,4.49-3.76,5-3.84,2.48-.39,2.56,2.5,4.21,5a8.11,8.11,0,0,1,1.54,3c.16,1.09-3.84,4.59-4.82,5.26C258.52,996.17,238.93,1013.81,238.93,1013.81Zm10.69-61.74c.85,5.65-7.07,16.65-13.78,17.68-1.78.26-4.13-2.09-4.36-3.69-1.14-7.43,9.31-17.19,13.39-17.8C246.29,948.05,249.36,950.47,249.62,952.07Z"/><path class="cls-1" d="M296,1006.1c-3.92,3.38-24.46,17.52-37.05,19.12-7.45,1-10.42-6.79-10.78-9.63-3.66-28.89,31-76.75,58.64-100.1,12.67-10.81,23.09-15.38,28.41-16,3.71.8,8.07,3.85,9.52,8.15,3.12,24.49-58.23,79.34-75.75,90.23a21.73,21.73,0,0,0-1.5,9.54c.05.37.24.52,1,.44,2.84-.36,15.89-9.78,15.89-9.78l27.25-19.5c.67-.46,4.59-3.66,5.1-3.72,2.48-.31,2.51,2.56,4.08,5.06a8.26,8.26,0,0,1,1.47,3.07c.13,1.06-3.95,4.46-4.93,5.14Zm-13-35.32,3.74-1.73c14.5-10.68,32.3-32.22,41.07-48.3a3.51,3.51,0,0,0,.67-1.88.48.48,0,0,0-.59-.47,2,2,0,0,0-1.21.52C316.26,926.35,296.83,949.39,283,970.78Z"/><path class="cls-1" d="M352.43,1000.24c-4,3.28-24.85,17-37.46,18.27-7.46.8-10.25-7-10.55-9.86-3-29,32.68-76,60.86-98.71,12.92-10.52,23.45-14.86,28.77-15.4,3.69.88,8,4,9.34,8.36,2.55,24.53-60,78-77.77,88.44a21.75,21.75,0,0,0-1.7,9.52c0,.36.23.52.93.44,2.86-.28,16.1-9.39,16.1-9.39L368.63,973c.67-.43,4.67-3.53,5.21-3.58,2.48-.26,2.43,2.6,4,5.16a8.22,8.22,0,0,1,1.39,3.07c.11,1.08-4,4.38-5.05,5Zm-12.15-35.58L344,963c14.74-10.34,33-31.47,42.16-47.34a3.3,3.3,0,0,0,.7-1.88.46.46,0,0,0-.59-.47,2.25,2.25,0,0,0-1.22.47C374.54,921,354.6,943.59,340.28,964.66Z"/><path class="cls-1" d="M398.1,997.25s-20.28,15.27-35.07,16.49c-2.32.18-2.58-.85-3.74-1.83a11.51,11.51,0,0,1-2.63-5.91c-1.29-15.66,15.48-34.45,27.19-49.38a5.77,5.77,0,0,1,4.11-2.3c2.86-.23,5.85,1.5,8.33,3.25,1.94,1.47,2.74,2.48,2.79,3.38a2.38,2.38,0,0,1-.75,1.68c-1,1-15.64,21.69-17.7,24.92-1.11,1.88-1.7,3.2-1.65,3.9,0,.36.2.54.93.46,5-2.55,10.45-6,10.45-6l24.87-16c.69-.41,4.75-3.43,5.29-3.48,2.5-.21,2.37,2.68,3.84,5.24a8.05,8.05,0,0,1,1.32,3.12c.1,1.08-4.13,4.28-5.16,4.92C418.84,981,398.1,997.25,398.1,997.25Zm15-60.76c.47,5.7-8.2,16.07-15,16.64-1.78.16-4-2.37-4.11-4-.59-7.48,10.51-16.46,14.61-16.8C410,932.26,412.93,934.89,413.06,936.49Z"/><path class="cls-1" d="M466.42,993s-20.08,14.86-30.06,15.45c-1.45.11-7.28-1.7-7.54-5.8a4.22,4.22,0,0,1,.57-2.38l7.15-15c0-.34-.21-.52-.39-.49-.36,0-.69.21-1.39.62-1.21.77-22.6,20.2-25.85,22.73a2.7,2.7,0,0,1-1.06.23c-1.78.1-10.27-3.66-10.4-5.83a2.94,2.94,0,0,1,.59-1.81L432.26,947a5.42,5.42,0,0,1,2.6-1.24c2.14-.13,8.15,4.51,8.28,6.66.18,3-10.39,20.53-10.34,21.25,0,.19.39.34.72.31a1.59,1.59,0,0,0,.9-.23c5-3,27.64-25.88,30.86-26.08a3.23,3.23,0,0,1,2.19.77c2.25,1.65,5.37,3.07,5.53,5.58a5.17,5.17,0,0,1-.91,2.73c-2.78,4.13-18.57,27.48-18.88,28.23l30-19c.69-.41,4.8-3.32,5.34-3.38,2.5-.15,2.32,2.74,3.74,5.35a8.12,8.12,0,0,1,1.26,3.14c.06,1.06-4.23,4.21-5.26,4.8Z"/><path class="cls-1" d="M519.72,960.87c-1.24,0-1-2.11-2.4-2.06-5.19.2-29.28,20.28-29,26.52,0,.36.37.52.73.52,5.54-.24,19.19-12.72,27.81-21.29,1.55-1.68,2.76-2.42,3.84-2.48,1.42-.05,2.71,1.17,4.36,1.81,1.81.65,3.07,1.14,3.15,2.92a7.93,7.93,0,0,1-.44,2.52c-1.29,3.8-14.52,22.37-19.14,28.1-4.93,6.27-28.56,43.47-28.48,45.07,0,.55,1.13,1.76,1.16,2.66a1.3,1.3,0,0,1-.67,1.27c-1.22,1-9.27,10.19-16.88,16.92-2.24,2.07-4.18,2.84-5.42,2.89-3.76.16-4.92-6.78-5-8.38-.11-2.87,1.23-5.24,2.52-8.52,8.34-16,30-43,37-51.32a1.52,1.52,0,0,0,.49-1.08c0-.54-.39-.7-1.09-.67a2.08,2.08,0,0,0-.9.21c-1.57.77-13.36,5.52-16,6.16-2.32.08-5.7-4.07-6.71-6.73-.64-16.59,13.52-30.19,22.34-38.06,9-8,22.14-14.42,29-15.94a38.12,38.12,0,0,1,5.89-.78c5-.18,11.14,1.37,11.35,6.74a9,9,0,0,1-.59,3.4C536.26,953.62,519.72,960.87,519.72,960.87Z"/><path class="cls-1" d="M716.34,908.32c0,22.39-31.6,49.33-74.07,68-30.08,13.19-50,23.69-64.65,24.56-2.69,0-4-1.26-4.47-2.16-.54-1.09-3.22-3.23-6.81-4.49a3.62,3.62,0,0,1-1.24-2.87,6.69,6.69,0,0,1,1.09-3.22c2.32-3.74,69.45-84.14,70.71-85.22.37-.36.55-.54.55-.88,0-.72-.91-1.26-2-1.26-3.56,0-42.08,17.8-45.69,21.36a6.5,6.5,0,0,1-3,.9c-1.24,0-2.68-.72-3.92-2.89-1.78-3.22-5.16-8.23-5.16-12.35a4.88,4.88,0,0,1,1.45-3.74c12.72-12.7,48.4-33,85.27-32.93C712.86,871.27,716.34,908.32,716.34,908.32Zm-14.83-5.76a3.74,3.74,0,0,0-1.06-2.86c-9.13-4.13-23.45-5.42-32.38-5.44-4.13,0-7.17.33-8.07.69a.72.72,0,0,0-.36.72c0,.7.9,1.42,2.5,2.69a3.69,3.69,0,0,1,1.62,2.68,4.44,4.44,0,0,1-1.08,2.68c-1.45,2-28.9,34.86-32,38.06S607,969.28,607,969.28C663.12,948.85,701.48,912.06,701.51,902.56Z"/><path class="cls-1" d="M716.58,941.57a15,15,0,0,1,5.67,1.94,35.07,35.07,0,0,1,7.67-5.52,6.48,6.48,0,0,1,3.07-.62s8.64,4.69,8.48,10.78c-.54,19.33-33.9,54.26-57.17,53.64-2.32-.08-12.82-2.68-12.72-6.63C672.23,971.55,698.85,941.08,716.58,941.57Zm8,8.1c0-.72,0-1.26-.7-1.26-1.78-.23-31.34,26.19-31.6,36,0,.36.33.55,1.78.57C703.06,984,724.34,958.27,724.6,949.67Z"/><path class="cls-1" d="M787.17,995.08s-21.52,12.62-31.51,12.18c-1.44-.08-7.07-2.48-6.86-6.58a4.31,4.31,0,0,1,.8-2.29l8.7-14.12c0-.33-.16-.54-.34-.54a3.64,3.64,0,0,0-1.44.47c-1.29.67-24.59,17.69-28.1,19.86a2.51,2.51,0,0,1-1.08.13c-1.79-.08-9.81-4.75-9.71-6.89a3,3,0,0,1,.8-1.75l39.63-49.75a5.68,5.68,0,0,1,2.74-.95c2.14.1,7.64,5.37,7.53,7.51-.13,3-12.51,19.3-12.54,20,0,.18.34.39.7.39a1.5,1.5,0,0,0,.9-.13c5.32-2.45,30.21-22.78,33.41-22.65a3.28,3.28,0,0,1,2.12,1c2.06,1.86,5,3.62,4.9,6.12a5.21,5.21,0,0,1-1.18,2.63c-3.23,3.79-21.37,25.34-21.75,26L806.72,970c.73-.31,5.14-2.82,5.68-2.79,2.5.1,2,3,3.15,5.7a8.53,8.53,0,0,1,.93,3.25c-.06,1.09-4.65,3.74-5.76,4.21Z"/><path class="cls-1" d="M863.35,974c.75-.31,5.19-2.73,5.73-2.7,2.51.18,2,3,3,5.75a8.75,8.75,0,0,1,.87,3.3c-.07,1.06-4.72,3.64-5.83,4.1-1.85,1.14-24.56,14.22-24.56,14.22-9.62,4.77-22.81,12-28.9,11.64-11.06-.7-20.09-5.4-19.47-15.23.56-8.92,16.59-15.45,19-16.72,1.11-.46,3.15-1.23,3.54-1.93,0-.36-.31-.75-1.37-.8-6-1.47-8.46-2.32-8-10,.31-4.83,3.28-9,19.51-16.33,14.42-6.63,25.93-7.33,30.93-7s12.67,3.84,12.31,9.57c-.52,8.21-20.77,10.68-20.77,10.68-2-.1-1.08-2.4-2.68-2.83-.54-.06-16.41,4.15-17.88,4.95-1.29.46-2.61,1.44-2.63,2,0,.36.51.38,4.07.61a108.34,108.34,0,0,0,11.46.19c2.68.36,3.43,5.23,3.27,7.92-.1,1.78-.36,2.65-2.68,2.52-1.78-.12-31.22,11.64-31.35,14-.05.54.13.72,2.27.88,8.21.52,23.35-6.42,23.35-6.42Z"/><path class="cls-1" d="M974.24,921.66c-21.23,3.68-37.28,9.52-42,11.55-2.81,1.19-4.65,1.55-6.25,1.4-4.61-.47-6.78-7.87-6.37-12.15.36-3.75,2-7.18,3.12-8.13,14.24-11.22,62.29-24.36,91.85-21.47,13,1.27,22.45,4.16,26.89,8.36,6.58,6.4,19.17,21.11,18.19,31.27-1.14,11.77-16.54,25.91-42.81,33.26-26.62,7.3-33.87,7.84-33.87,7.84,2.53,3.85,20.92,47.55,20.12,55.94-.31,3.2-1.86,6.11-10.4,6.89a29.76,29.76,0,0,1-6.14.31c-13.54-1.32-24.48-51.68-30.47-65.74-2.86,3.48-38.47,38.52-40.32,40.86-1.22,1.5-3.56,3.44-6.07,3.18-4.61-.44-11-10.43-10.65-14.17a8.55,8.55,0,0,1,1.44-3.82C904.17,990.93,950.64,942.4,974.24,921.66Zm51.89-2.69a173.74,173.74,0,0,0-25.85-.54,4.43,4.43,0,0,1,.8,2.79,5.72,5.72,0,0,1-2,3.4c-5.55,5.39-27.12,29.21-30.6,31.74,0,0,.23,1.29,2.19,1.47,15.87,1.55,71-15.77,73.2-31.38C1043.91,926.45,1044.47,920.75,1026.13,919Z"/><path class="cls-1" d="M1040.4,1018.51s-23,10.94-37.7,9.19c-2.32-.29-2.37-1.37-3.3-2.56a11.35,11.35,0,0,1-1.42-6.32c1.88-15.64,22.09-30.7,36.56-43a6.07,6.07,0,0,1,4.49-1.44c2.86.34,5.47,2.66,7.53,4.88,1.6,1.8,2.17,3,2.07,3.84a2.31,2.31,0,0,1-1.09,1.5c-1.16.77-19.68,18.21-22.34,21-1.47,1.62-2.32,2.78-2.4,3.51,0,.33.1.54.83.61,5.39-1.49,11.45-3.84,11.45-3.84L1062.71,995c.75-.26,5.35-2.4,5.86-2.35,2.5.31,1.81,3.1,2.71,5.91a8.72,8.72,0,0,1,.7,3.33c-.13,1.08-4.93,3.38-6,3.79C1064,1006.75,1040.4,1018.51,1040.4,1018.51Zm26.83-56.66c-.67,5.7-11.25,14.17-18,13.37-1.78-.24-3.4-3.12-3.22-4.72.9-7.49,13.59-14.07,17.67-13.58C1065.09,957.11,1067.44,960.25,1067.23,961.85Z"/><path class="cls-1" d="M1098.19,995.81c-1.24-.18-.62-2.27-2-2.46-5.13-.69-32.33,15-33.15,21.19,0,.36.28.59.62.64,5.49.72,21.1-9.26,31.06-16.25,1.83-1.37,3.15-1.91,4.23-1.78,1.42.2,2.48,1.6,4,2.53,1.68,1,2.84,1.65,2.61,3.43a7.85,7.85,0,0,1-.88,2.4c-1.91,3.53-18.16,19.61-23.68,24.46-5.94,5.34-35.61,38-35.82,39.6-.07.54.83,1.91.7,2.81a1.35,1.35,0,0,1-.88,1.14c-1.36.72-10.88,8.48-19.55,13.83-2.56,1.62-4.6,2.09-5.83,1.9-3.74-.49-3.69-7.53-3.49-9.13.39-2.84,2.12-4.95,3.95-7.95,11-14.42,37-37.3,45.31-44.29a1.47,1.47,0,0,0,.67-1c.07-.52-.26-.75-1-.85a1.79,1.79,0,0,0-.9,0c-1.7.52-14.17,3.17-16.9,3.35-2.3-.31-4.93-5-5.44-7.79,2.21-16.48,18.49-27.48,28.53-33.72,10.24-6.4,24.33-10.47,31.43-10.78a37.81,37.81,0,0,1,5.9.25c5,.68,10.76,3.26,10.07,8.57a9.5,9.5,0,0,1-1.16,3.28C1115.73,991.47,1098.19,995.81,1098.19,995.81Z"/><path class="cls-1" d="M1169.37,1031.38c-18.57,8.11-16.46,8.6-40,11.25-3.18-.46-4.91-4.69-5.55-7.68a2.25,2.25,0,0,1,0-1.09c.52-3.53,5.94-9.62,7.38-10.65.6-.47.83-.8.88-1.14a.86.86,0,0,0-.75-1,1.89,1.89,0,0,0-1.31.36c-1.78,1-27.4,14-32.25,16.2a5.77,5.77,0,0,1-3.13.44c-2.32-.33-3.27-2.48-3.94-4a7.45,7.45,0,0,1-.42-2,3.84,3.84,0,0,1,1.19-1.83l26-26.71c4.28-4.43,64.24-61.38,68.42-65.12,2.89-2.45,5.29-2.81,6.89-2.58.69.11,1,.34,7.79,6a4.32,4.32,0,0,1,1.42,3.82,7.94,7.94,0,0,1-2.43,4.15c-3.22,3.51-26.08,23.45-30.83,27.45l-33.82,28.1c-1,.93-1.5,1.57-1.58,2.12,0,.36.11.56.29.59a.61.61,0,0,0,.54-.1c1.21-.73,22.65-11.3,26.91-13.21a8,8,0,0,1,4.31-1c1.6.23,2.86,1.49,5,4.51a6,6,0,0,1,1.19,4.18c-.41,2.81-3.46,5.08-5.16,6.63-3.87,3.05-12.23,11.77-14.17,15.09l32.07-11.35c.78-.23,5.4-2.27,5.94-2.19,2.48.36,1.7,3.15,2.55,6a8.53,8.53,0,0,1,.6,3.35c-.16,1.06-5,3.22-6.14,3.61Z"/><path class="cls-1" d="M1218.06,1034.51a149.56,149.56,0,0,1-16.54,7.09c-2.94,1.34-16.8,5.24-23.17,4.23a6.9,6.9,0,0,1-5.24-3.4c-1.39-2.58-2.76-5.34-2.21-8.7a10.42,10.42,0,0,1,1.34-3.76c3-5,12.59-15.18,17.52-19.82,2.58-2.48,19.4-16.77,35.78-30.62-19.17-1.47-32-1.55-47.91-3-.88-.15-1.81.08-2.53-.05s-1-.34-.9-1.06a5.26,5.26,0,0,1,1.08-2.17c2.58-3.74,7.74-10.88,12.64-11,0,0,23.38,1.06,53.1,4.44,8.75-6.94,15.66-12.69,17.47-13.85,2-1.29,3.53-2.69,4.93-2.45,1.78.28,7.48,6.45,7.06,8.92a3.26,3.26,0,0,1-.79,1.68l-3,3.15-5.91,5c4.8.62,9.75,1.42,14.71,2.22,6.71,1.08,34.16,6.06,33.62,9.42-.11.54-.55,1-1.35,1.6a87.25,87.25,0,0,1-8.79,5.11c-1.42.85-2.4,1.23-5.76.69-19.06-3.09-34.13-5.16-46.77-6.5-13.7,11.92-29.6,26-31.3,27.56-3.12,2.58-17.78,16.87-19.32,18.6a2.46,2.46,0,0,0-.73,1.16.5.5,0,0,0,.44.62,6.41,6.41,0,0,0,2.66-.67l26.14-9.16c.74-.26,5.41-2.22,6-2.12,2.45.39,1.65,3.15,2.45,6a7.77,7.77,0,0,1,.54,3.36c-.16,1.06-5,3.17-6.19,3.51C1226.29,1030.77,1219.84,1033.71,1218.06,1034.51Z"/><path class="cls-1" d="M1250.57,1041.09c1.42.23,7.38,4.56,7.09,6.16-1,5.63-12.05,13.5-18.73,12.28-1.78-.31-7-4.33-6.76-5.93C1233.49,1046.22,1246.52,1040.36,1250.57,1041.09Zm103.3-86.82a8.25,8.25,0,0,0,2.56-4.11,4.44,4.44,0,0,0-1.32-3.87c-6.58-5.88-6.91-6.14-7.61-6.24-1.57-.28-4,0-7,2.37L1267.6,1015c-3.64,3-9.37,8.69-10.09,12.74a5.56,5.56,0,0,0,0,1.83c.49,3.36,3.62,7.18,6.27,7.67,1.58.28,4.26-.52,12-7C1286.22,1021.63,1352.5,955.84,1353.87,954.27Z"/><path class="cls-1" d="M235,727.61a34,34,0,0,1,13.13,2.22c3.6,1.59,11.23,8.47,11.23,14.3s-9.75,11.44-13.66,13-11.13,5.08-12.72,5.5c-.21.11-.31.11-.31.22s9.64,1.58,9.64,10.8c0,14.4-38.77,32.62-54.65,32.62a21.91,21.91,0,0,1-2.55-.21c-1.27-.21-4-1.17-4-5.51a8,8,0,0,1,.53-2.86L177,803.65c-1.38,1.7-2.65,3.18-4.24,3.18,0,0-6.35-1.8-6.35-5.19a3.56,3.56,0,0,1,.42-1.69c1.59-3.39,15.78-21.93,18.74-26.16,2.44-3.5,19.5-24.37,24.9-30.51a135.46,135.46,0,0,0-34.85,15,4.62,4.62,0,0,1-2.54,1c-1.91,0-4.24-2.76-4.24-5.09a9.18,9.18,0,0,1,2.44-5.51C180.45,739.47,213.29,727.61,235,727.61Zm-49.89,66.3c12.18-2,36.76-10.91,45.44-22.14,0,0-.11-1.16-.74-1.16-16,0-24.68,3.07-24.68,3.07-.64,0-.95-.64-1.17-1.59l-.42-2.54c-6.78,8.79-14.19,18.22-19.49,25ZM211,760.12c12.29-4,34.32-11.54,40.57-17.69-4-2.64-7.41-2.75-15.67-2.75a87.42,87.42,0,0,0-16.63,1.59c1.06.53,2,1.16,2.33,1.27a3.14,3.14,0,0,1,.84,2.23,2.26,2.26,0,0,1-.84,1.8S217.1,752.29,211,760.12Z"/><path class="cls-1" d="M255.21,801.32a6.77,6.77,0,0,1,.21-1.8,3.07,3.07,0,0,0,.21-.85c0-.21-.1-.42-.32-.42-3.17,2-9,4.66-11.22,4.66-1.9,0-4.77-3.49-4.77-5.61,0-16.74,26.7-30.08,35.91-30.08a6.32,6.32,0,0,1,1.59.21,6.42,6.42,0,0,1,3.91,5.51c0,2.22-5.82,4-5.82,4.77,0,.31.53.84.95,1s.53.64.53,1.17a2.31,2.31,0,0,1-.21.84c-.42.64-7.31,10.6-7.63,11.66.32,0,6.89-3.82,7.63-4.24l9.95-5.4a35.64,35.64,0,0,1,3.29-1.8c1.48,0,1.27,1.69,2,3.28a4.9,4.9,0,0,1,.63,1.91c0,.63-2.65,2.33-3.29,2.65-1.06.74-14.08,9.32-14.08,9.32-1.59,1.05-11.65,6.88-15.46,6.88A4,4,0,0,1,255.21,801.32Zm13-22.24a.59.59,0,0,0-.64-.53c-3.81.53-15.46,9.53-15.46,13.45a.28.28,0,0,0,.32.32C256.16,792,268.24,780.35,268.24,779.08Z"/><path class="cls-1" d="M330.3,781c1.48,0,1.27,1.69,2,3.28a4.9,4.9,0,0,1,.63,1.91c0,.63-2.64,2.33-3.28,2.65-1.38.95-13.56,8.89-17.06,10.59s-11.75,4.87-15.35,5.08a4.93,4.93,0,0,1-4.24-2.22,7,7,0,0,1-1.06-3.5c0-5.61,8.26-11.54,13-16.84.11-.11-.21-.42-.63-.53-.22,0-.54-.1-1-.1a5.48,5.48,0,0,0-2.54.52c-3.18,2.55-19.59,12-25.21,16.32a4.06,4.06,0,0,1-1.37.42,1.33,1.33,0,0,1-1.17-.63s-.63-4.88-.63-6.26a1.06,1.06,0,0,1,.52-1c6.68-3.71,20.34-11,20.34-12.08,0-.63-.32-1.27-.32-2a5.9,5.9,0,0,1,2.44-4.45A80,80,0,0,1,310,764a4.39,4.39,0,0,1,1.06-.21c1.69,0,2.22,1.48,2.54,1.8s1.48,1,1.48,2c0,.43-.21.74-.64,1.27-1.69,1.7-3.27,3.39-3.27,3.39a1.12,1.12,0,0,0-.11.43c0,.21.11.42.53.42s1.48-.21,2.85-.21,2.76.21,3.5,1.16a6.88,6.88,0,0,1,1.69,4.24,3.39,3.39,0,0,1-1.47,2.86,71.52,71.52,0,0,0-8.48,7.2,13.92,13.92,0,0,0-2.54,3.39,1,1,0,0,0-.32.53c0,.11.11.11.63.11,2.76-.32,16.74-8.16,19.6-9.64A34.39,34.39,0,0,1,330.3,781Z"/><path class="cls-1" d="M378.05,736.82c2.43,0,2.86,1.38,3.92,2.12a4.06,4.06,0,0,1,1.59,3.18c-2.12,11-17.79,23.19-24.36,29.76-.64.53-.85.85-.85,1.06s.21.21.42.21c.53,0,11.86.53,12.71.53.43,0,.64.11.64.32-.11,3-3.29,6.88-5.83,6.88-.42,0-7.3,0-7.73.11-.21.1-1.06,0-1.06.42,0,.11.11.21.21.42.53.75.53,1.7.53,3.18-.95,9.11-23.41,22.24-31.88,22.24-2.12,0-3.6-3.07-4.13-3.7a6.39,6.39,0,0,1-.74-3.08C321.49,786.6,363.43,736.82,378.05,736.82ZM350.3,781.94a1.26,1.26,0,0,0-1.16-1.17c-.75,0-13.14,10.07-13.35,10,0,0-2.23,3-2.23,5.3.11.42.32.63.64.63C338.12,796.66,350.3,785.22,350.3,781.94Zm20.33-31c.43-.53.54-.74.54-1a.23.23,0,0,0-.21-.21c-2.87,0-21.61,18.75-23.62,23.83C348.07,773.57,366.19,756.31,370.63,750.91Z"/><path class="cls-1" d="M400.92,782.79a35.54,35.54,0,0,1,3.28-1.8c1.49,0,1.28,1.69,2,3.28a4.79,4.79,0,0,1,.64,1.91c0,.63-2.65,2.33-3.28,2.65-1.06.74-14,9.32-14,9.32-5.51,3.17-13,7.94-16.63,7.94-6.57,0-12.08-2.44-12.08-8.26,0-5.3,9.22-9.75,10.6-10.59.63-.32,1.8-.85,2-1.28,0-.21-.21-.42-.85-.42-3.6-.63-5.09-1.06-5.09-5.61,0-2.86,1.59-5.4,10.92-10.38,8.26-4.45,15-5.3,18-5.3s7.63,1.8,7.63,5.19c0,4.88-11.86,7.1-11.86,7.1-1.17,0-.75-1.38-1.7-1.59-.32,0-9.53,3.07-10.38,3.6-.74.32-1.48,1-1.48,1.27s.32.21,2.43.21a63.85,63.85,0,0,0,6.78-.31c1.59.1,2.23,3,2.23,4.55,0,1.06-.11,1.59-1.48,1.59-1.07,0-18,8-18,9.42,0,.32.1.43,1.38.43,4.87,0,13.55-4.66,13.55-4.66Z"/><path class="cls-1" d="M408.85,800.79a1,1,0,0,0,.32-.53c0-.1,0-.21-.22-.21a5.39,5.39,0,0,0-.63.21,19.17,19.17,0,0,1-9.53,2.76c-2.86,0-3.6-3.6-3.6-4.77,0-7.62,13-19.38,15.14-21.18a41.72,41.72,0,0,1,24.15-9.64c1.8,0,2.54,0,4.56,3a6.74,6.74,0,0,1,1.27,3.28c0,1.16-.54,2.12-1.27,2.22-8.16,1.17-14.41,2.54-21.51,7.74-1,.63-8.36,7.3-8.36,9.21a.28.28,0,0,0,.32.32.37.37,0,0,0,.31-.11c6.47-2.54,11.66-6.67,20.23-14.62a1.9,1.9,0,0,1,1.28-.42c1.69,0,3.7,1.49,4.23,1.8a2,2,0,0,1,1.59,1.7,2.16,2.16,0,0,1-.75,1.48l-21.91,23.83a4.79,4.79,0,0,1,.95.53,7,7,0,0,1,2.86,5.83c0,11.65-28.28,30.61-38.13,30.61a.87.87,0,0,1-.43.1c-.74,0-1.38-1.38-2.11-2.65a4.33,4.33,0,0,1-1-2.12,1.59,1.59,0,0,1,.21-1l19.49-22.77c-6.78,3-14.93,7-16.2,7.73a1.51,1.51,0,0,1-.64.21c-1.27,0-2-2.11-2.54-3.81a3.89,3.89,0,0,1-.21-1.48,3,3,0,0,1,.95-2.33c1.17-.53,9-5.19,14-7.2a48.79,48.79,0,0,1,13.45-3.5Zm2.44,12.71a1.57,1.57,0,0,0,.21-.63c0-.53-.64-1-1.7-1L393.6,829.5a46.09,46.09,0,0,0,9-5.51A36.86,36.86,0,0,0,411.29,813.5Z"/><path class="cls-1" d="M482.35,782.89a34.29,34.29,0,0,1,3.28-1.8c1.48,0,1.17,1.59,1.91,3.18a4.9,4.9,0,0,1,.63,1.91c0,.63-2.65,2.33-3.28,2.65l-13.24,9c-3.6,2.43-10.7,6-13.87,6a1.57,1.57,0,0,1-1.38-.63c-1.06-1.38-2.22-2.65-2.22-4.24a2.28,2.28,0,0,1,.21-1.16c.74-2.12,2.11-4.77,2.22-5.19,0-.21,0-.32-.21-.32a2.13,2.13,0,0,0-.85.42C452.9,795,442,802.91,438.18,802.91c-1.59,0-3.6-2.65-3.6-4.13,0-9.11,16.1-27.85,21.4-27.85,2.11,0,5.29,2.32,5.29,3.6,0,1.48-11.65,10.8-11.65,14.93,0,.21.11.42.32.42a1.41,1.41,0,0,0,.74-.31c.95-.64,12.81-9.75,14.94-11.44s4.86-5.19,5.71-5.93a4.32,4.32,0,0,1,2.76-1.38c1.59,0,5,2.43,5,3.92a1.25,1.25,0,0,1-.32.85c-1.27,1.37-12.4,13.76-13,15a3.25,3.25,0,0,0-.53,1.16.28.28,0,0,0,.32.32A1.1,1.1,0,0,0,466,792Z"/><path class="cls-1" d="M514.64,782.79a35.54,35.54,0,0,1,3.28-1.8c1.49,0,1.27,1.69,2,3.28a4.79,4.79,0,0,1,.64,1.91c0,.63-2.65,2.33-3.28,2.65-1.06.74-14,9.32-14,9.32-5.5,3.17-13,7.94-16.62,7.94-6.57,0-12.08-2.44-12.08-8.26,0-5.3,9.22-9.75,10.6-10.59.63-.32,1.8-.85,2-1.28,0-.21-.21-.42-.85-.42-3.6-.63-5.09-1.06-5.09-5.61,0-2.86,1.59-5.4,10.92-10.38,8.26-4.45,15-5.3,18-5.3s7.63,1.8,7.63,5.19c0,4.88-11.87,7.1-11.87,7.1-1.16,0-.74-1.38-1.69-1.59-.32,0-9.54,3.07-10.38,3.6-.74.32-1.48,1-1.48,1.27s.31.21,2.43.21a64.11,64.11,0,0,0,6.78-.31c1.59.1,2.23,3,2.23,4.55,0,1.06-.11,1.59-1.49,1.59-1.06,0-18,8-18,9.42,0,.32.1.43,1.37.43,4.88,0,13.56-4.66,13.56-4.66Z"/><path class="cls-1" d="M608.78,757.9c-2.33,0-7.1-4.24-7.1-5.93,0-1.91,16.31-8.26,16.31-9.11,0-.21-.21-.32-.73-.32-21.4,0-49,14.83-49,15.89,0,.85,2.64,1.06,6,1.06,5.4,0,12.82-.75,14.62-1.49a4.86,4.86,0,0,1,2.33-.63c1.27,0,1.37.85,1.37.85s3.39,5.08,3.39,6.67c0,1-1,1.48-2.32,1.91-2,.84-19.6,10.27-22.46,11.64-4.45,2.23-19,13.24-19,16,0,.42.32.84,1.59.84,10.59,0,26.8-10.9,36.75-16.94a5,5,0,0,1,2.33-1c1.27,0,2.44,1.8,2.44,3a15.57,15.57,0,0,1-1.06,4.24c-1.8,5.29-2.22,6.78-11.76,13.66a52.79,52.79,0,0,1-14.29,7.1c-4,5.51-8.48,11-11.76,16.42,0,0-.21,1.16-1.06,1.16a4.33,4.33,0,0,1-4.56-4.34c0-3,2-6.78,4.77-10.7-10.17-.64-13.45-12.29-13.45-15.15,0-6.35,6.46-12.18,10.38-15.14,4.45-3.39,15.57-9.32,15.57-9.32-6.14-.53-11.65-3.5-11.65-10.91,0-5.3,4.55-8.69,6.46-10.06a95.62,95.62,0,0,1,36.54-15c3.7-5.09,7.84-10.91,10.48-15.26,0,0,.21-1.16,1.06-1.16a5.11,5.11,0,0,1,4.46,5.19c0,2.54-1.92,6-4.24,9.74a17,17,0,0,1,1.9-.1c11.76,0,15.46,9.64,15.46,12.39C628.58,753.56,608.78,757.9,608.78,757.9Z"/><path class="cls-1" d="M709.9,751.75c-2.64,0-7.94-4.65-7.94-6.56,0-2.12,18.11-9.22,18.11-10.17,0-.21-.21-.32-.74-.32-23.83,0-54.54,16.42-54.54,17.69,0,.85,3,1.17,6.67,1.17,6,0,14.3-.85,16.31-1.7a5.82,5.82,0,0,1,2.54-.64c1.38,0,1.59.85,1.59.85-.21.11,3.71,5.72,3.71,7.42,0,1-1.06,1.69-2.55,2.12-2.22.95-21.82,11.43-25,13C663.2,777.07,647,789.25,647,792.32c0,.53.42.95,1.8.95,11.76,0,29.77-12.07,40.88-18.85a5.51,5.51,0,0,1,2.55-1.06c1.38,0,2.75,2,2.75,3.39a17,17,0,0,1-1.27,4.66c-2,5.93-2.44,7.52-13,15.15s-24.78,10.69-28.91,10.69c-12.07,0-15.89-13.55-15.89-16.73,0-7.1,7.1-13.45,11.54-16.84,4.88-3.71,17.27-10.38,17.27-10.38-6.89-.64-12.92-3.92-12.92-12.18,0-5.83,5-9.64,7.09-11.12,25.95-17.8,53-18.43,55.82-18.43,13.14,0,17.16,10.7,17.16,13.77C731.83,747,709.9,751.75,709.9,751.75Z"/><path class="cls-1" d="M708.41,770.08c2,0,4.45,1.27,4.45,2.65,0,4.87-2.23,9.42-2.23,10.16a.24.24,0,0,0,.21.22,1.68,1.68,0,0,0,.64-.32c3.5-3,16-14.72,19.91-14.72a1.47,1.47,0,0,1,1,.53c1.27,1.27,3.28,3.28,3.28,4.87a1.65,1.65,0,0,1-.74,1.37c-2.54,1.91-19.91,16.32-21.82,17.8s-11.65,10.8-12.5,11.65a3.53,3.53,0,0,1-2.33,1.16,2.08,2.08,0,0,1-1.06-.31c-1-.75-3.28-1.7-3.28-3.39a2.41,2.41,0,0,1,.21-.85c4.55-9.85,8.58-17.9,12.29-29.87A2.6,2.6,0,0,1,708.41,770.08Z"/><path class="cls-1" d="M770.89,782.79a35.54,35.54,0,0,1,3.28-1.8c1.49,0,1.28,1.69,2,3.28a4.79,4.79,0,0,1,.64,1.91c0,.63-2.65,2.33-3.28,2.65-1.06.74-14,9.32-14,9.32-5.5,3.17-13,7.94-16.62,7.94-6.57,0-12.08-2.44-12.08-8.26,0-5.3,9.22-9.75,10.6-10.59.63-.32,1.8-.85,2-1.28,0-.21-.21-.42-.85-.42-3.6-.63-5.09-1.06-5.09-5.61,0-2.86,1.59-5.4,10.92-10.38,8.26-4.45,15-5.3,18-5.3s7.63,1.8,7.63,5.19c0,4.88-11.86,7.1-11.86,7.1-1.17,0-.75-1.38-1.7-1.59-.32,0-9.53,3.07-10.38,3.6-.74.32-1.48,1-1.48,1.27s.31.21,2.43.21a63.85,63.85,0,0,0,6.78-.31c1.59.1,2.23,3,2.23,4.55,0,1.06-.11,1.59-1.49,1.59-1.06,0-18,8-18,9.42,0,.32.1.43,1.37.43,4.88,0,13.56-4.66,13.56-4.66Z"/><path class="cls-1" d="M801.8,798.15s-12.39,8-18.32,8c-.84,0-4.23-1.27-4.23-3.7a2.53,2.53,0,0,1,.42-1.38l4.77-8.58c0-.21-.11-.31-.22-.31a2.14,2.14,0,0,0-.85.31c-.73.43-14.08,11.12-16.09,12.5a1.32,1.32,0,0,1-.64.11c-1.06,0-5.93-2.55-5.93-3.82a1.78,1.78,0,0,1,.42-1.06l22.14-30.5a3.32,3.32,0,0,1,1.59-.63c1.27,0,4.66,3,4.66,4.23,0,1.8-6.88,11.76-6.88,12.18,0,.11.21.21.42.21a1,1,0,0,0,.53-.1c3.07-1.59,17.26-14.3,19.17-14.3a2,2,0,0,1,1.27.53c1.27,1.06,3.07,2,3.07,3.49a3.07,3.07,0,0,1-.63,1.59c-1.8,2.33-12,15.57-12.18,16l18.43-10.17A35.44,35.44,0,0,1,816,781c1.49,0,1.28,1.69,2,3.28a4.9,4.9,0,0,1,.63,1.91c0,.63-2.65,2.33-3.28,2.65Z"/><path class="cls-1" d="M836.43,792a83.9,83.9,0,0,1-9,5.72c-1.59,1.06-9.31,4.66-13.13,4.66a4.06,4.06,0,0,1-3.38-1.48,7.87,7.87,0,0,1-2.13-4.87,6.35,6.35,0,0,1,.43-2.33c1.27-3.18,5.93-10.06,8.36-13.24,1.27-1.7,9.75-11.65,18-21.29-11.33,1-18.85,2.12-28.28,2.75-.53,0-1.06.21-1.48.21s-.64-.1-.64-.52a3.27,3.27,0,0,1,.42-1.38c1.17-2.44,3.5-7.1,6.36-7.63,0,0,13.77-1.59,31.46-2.43,4.44-4.88,7.94-8.9,8.9-9.75s1.8-1.91,2.65-1.91c1,0,5,3.08,5,4.56a2.07,2.07,0,0,1-.32,1.06l-1.48,2.12-3,3.49c2.85-.1,5.82-.1,8.79-.1,4,0,20.54.31,20.54,2.33,0,.32-.21.63-.63,1a50,50,0,0,1-4.66,3.82c-.75.64-1.27.95-3.29.95-11.44,0-20.44.21-28,.64-6.88,8.26-14.82,18-15.67,19.06-1.59,1.8-8.79,11.55-9.53,12.71a1.36,1.36,0,0,0-.32.74.28.28,0,0,0,.32.32,3.73,3.73,0,0,0,1.48-.63l14.4-7.84a34.39,34.39,0,0,1,3.29-1.8c1.48,0,1.27,1.69,2,3.28a4.9,4.9,0,0,1,.63,1.91c0,.63-2.64,2.33-3.28,2.65C840.88,789,837.38,791.37,836.43,792Z"/><path class="cls-1" d="M945.29,765.52c-2.86-.31-8.37-1.27-8.37-4a3.24,3.24,0,0,1,1.38-2.22c9.64-5.41,17.58-16.74,18.22-17.69a2,2,0,0,0,.21-.53c0-.43-.64-.64-1.49-.64-21.92,0-49.56,27.75-57.08,49.46a3.08,3.08,0,0,0-.22,1.28c0,.63.32.84.75.84,7.41,0,24.88-12.6,27-14.29,1.8-1.49,3-2.23,3.81-2.23,1.9,0,2.75,2.75,2.75,5.08a5.82,5.82,0,0,1-.53,2.65c-5.72,13-19,21.08-29.65,21.08-7.63,0-11.23-3.82-14.83-10.17a14.33,14.33,0,0,1-1.8-7.52c0-26.37,39.5-55.39,66.51-55.39,1.69,0,3,.1,4.56.21,2.54.21,3.7.53,7.51,6a13.4,13.4,0,0,1,2.76,7.83C966.79,752.92,950.27,765.52,945.29,765.52Z"/><path class="cls-1" d="M948.24,801.32a7.22,7.22,0,0,1,.21-1.8,3.14,3.14,0,0,0,.22-.85c0-.21-.11-.42-.32-.42-3.18,2-9,4.66-11.23,4.66-1.9,0-4.76-3.49-4.76-5.61,0-16.74,26.69-30.08,35.9-30.08a6.19,6.19,0,0,1,1.59.21,6.43,6.43,0,0,1,3.92,5.51c0,2.22-5.83,4-5.83,4.77,0,.31.53.84,1,1s.53.64.53,1.17a2.53,2.53,0,0,1-.21.84c-.43.64-7.31,10.6-7.63,11.66.32,0,6.88-3.82,7.63-4.24l9.95-5.4a36.89,36.89,0,0,1,3.28-1.8c1.49,0,1.27,1.69,2,3.28a4.9,4.9,0,0,1,.63,1.91c0,.63-2.65,2.33-3.28,2.65-1.06.74-14.09,9.32-14.09,9.32-1.59,1.05-11.65,6.88-15.46,6.88A4,4,0,0,1,948.24,801.32Zm13-22.24a.59.59,0,0,0-.64-.53c-3.81.53-15.46,9.53-15.46,13.45a.28.28,0,0,0,.32.32C949.2,792,961.27,780.35,961.27,779.08Z"/><path class="cls-1" d="M1002.67,792a83.9,83.9,0,0,1-9,5.72c-1.58,1.06-9.31,4.66-13.12,4.66a4.06,4.06,0,0,1-3.39-1.48A7.87,7.87,0,0,1,975,796a6.35,6.35,0,0,1,.43-2.33c1.27-3.18,5.93-10.06,8.36-13.24,1.28-1.7,9.75-11.65,18-21.29-11.33,1-18.85,2.12-28.28,2.75-.53,0-1.06.21-1.48.21s-.64-.1-.64-.52a3.17,3.17,0,0,1,.43-1.38c1.16-2.44,3.5-7.1,6.35-7.63,0,0,13.77-1.59,31.46-2.43,4.45-4.88,7.94-8.9,8.9-9.75s1.8-1.91,2.65-1.91c1,0,5,3.08,5,4.56a2.07,2.07,0,0,1-.32,1.06l-1.48,2.12-3,3.49c2.85-.1,5.82-.1,8.79-.1,4,0,20.54.31,20.54,2.33,0,.32-.21.63-.63,1a50,50,0,0,1-4.66,3.82c-.75.64-1.27.95-3.28.95-11.44,0-20.45.21-28,.64-6.88,8.26-14.82,18-15.67,19.06C997,779.29,989.75,789,989,790.2a1.36,1.36,0,0,0-.32.74.28.28,0,0,0,.32.32,3.68,3.68,0,0,0,1.48-.63l14.4-7.84a35.64,35.64,0,0,1,3.29-1.8c1.48,0,1.27,1.69,2,3.28a4.9,4.9,0,0,1,.63,1.91c0,.63-2.64,2.33-3.28,2.65C1007.12,789,1003.62,791.37,1002.67,792Z"/><path class="cls-1" d="M1039,782.79a34.39,34.39,0,0,1,3.29-1.8c1.48,0,1.27,1.69,2,3.28a4.9,4.9,0,0,1,.63,1.91c0,.63-2.64,2.33-3.28,2.65-1.06.74-14,9.32-14,9.32-5.51,3.17-13,7.94-16.63,7.94-6.56,0-12.08-2.44-12.08-8.26,0-5.3,9.22-9.75,10.6-10.59.63-.32,1.8-.85,2-1.28,0-.21-.21-.42-.85-.42-3.6-.63-5.08-1.06-5.08-5.61,0-2.86,1.59-5.4,10.91-10.38,8.26-4.45,15-5.3,18-5.3s7.63,1.8,7.63,5.19c0,4.88-11.86,7.1-11.86,7.1-1.17,0-.75-1.38-1.7-1.59-.31,0-9.53,3.07-10.38,3.6-.74.32-1.48,1-1.48,1.27s.32.21,2.43.21a63.85,63.85,0,0,0,6.78-.31c1.59.1,2.23,3,2.23,4.55,0,1.06-.1,1.59-1.48,1.59-1.06,0-18,8-18,9.42,0,.32.11.43,1.38.43,4.87,0,13.55-4.66,13.55-4.66Z"/><path class="cls-1" d="M1083.05,781c1.48,0,1.27,1.69,2,3.28a4.9,4.9,0,0,1,.63,1.91c0,.63-2.64,2.33-3.28,2.65-1.37.95-13.56,8.89-17.05,10.59s-11.76,4.87-15.36,5.08a5,5,0,0,1-4.24-2.22,7.14,7.14,0,0,1-1.06-3.5c0-5.61,8.27-11.54,13-16.84.11-.11-.21-.42-.63-.53-.22,0-.53-.1-1-.1a5.48,5.48,0,0,0-2.54.52c-3.17,2.55-19.59,12-25.2,16.32a4.18,4.18,0,0,1-1.38.42,1.33,1.33,0,0,1-1.17-.63s-.63-4.88-.63-6.26a1.05,1.05,0,0,1,.53-1c6.67-3.71,20.33-11,20.33-12.08,0-.63-.32-1.27-.32-2a5.9,5.9,0,0,1,2.44-4.45,80,80,0,0,1,14.51-8.05,4.39,4.39,0,0,1,1.06-.21c1.69,0,2.22,1.48,2.54,1.8s1.49,1,1.49,2c0,.43-.22.74-.64,1.27-1.7,1.7-3.28,3.39-3.28,3.39a1.12,1.12,0,0,0-.11.43c0,.21.11.42.53.42s1.48-.21,2.86-.21,2.75.21,3.5,1.16a6.88,6.88,0,0,1,1.69,4.24,3.4,3.4,0,0,1-1.48,2.86,71.52,71.52,0,0,0-8.48,7.2,13.92,13.92,0,0,0-2.54,3.39,1,1,0,0,0-.32.53c0,.11.11.11.64.11,2.75-.32,16.73-8.16,19.59-9.64A35.64,35.64,0,0,1,1083.05,781Z"/><path class="cls-1" d="M1096.7,798.15s-12.71,8-21.5,8c-1.38,0-1.49-.63-2.12-1.27a6.72,6.72,0,0,1-1.27-3.6c0-9.32,10.8-19.59,18.43-27.85a3.49,3.49,0,0,1,2.54-1.17c1.7,0,3.39,1.17,4.76,2.33,1.06,1,1.49,1.59,1.49,2.12a1.48,1.48,0,0,1-.53,1c-.63.52-10.27,12.07-11.65,13.87a5.53,5.53,0,0,0-1.17,2.22c0,.22.11.32.53.32,3.07-1.27,6.46-3.07,6.46-3.07l15.47-8.26a34.29,34.29,0,0,1,3.28-1.8c1.48,0,1.27,1.69,2,3.28a4.79,4.79,0,0,1,.64,1.91c0,.63-2.65,2.33-3.29,2.65C1109.73,789.57,1096.7,798.15,1096.7,798.15ZM1108.46,763c0,3.39-5.62,9.11-9.64,9.11-1.06,0-2.23-1.59-2.23-2.54,0-4.45,7-9.22,9.43-9.22C1106.87,760.33,1108.46,762,1108.46,763Z"/><path class="cls-1" d="M1138.84,798.15s-12.39,8-18.32,8c-.85,0-4.24-1.27-4.24-3.7a2.55,2.55,0,0,1,.43-1.38l4.76-8.58c0-.21-.1-.31-.21-.31a2.09,2.09,0,0,0-.85.31c-.74.43-14.08,11.12-16.09,12.5a1.34,1.34,0,0,1-.64.11c-1.06,0-5.93-2.55-5.93-3.82a1.72,1.72,0,0,1,.42-1.06l22.14-30.5a3.29,3.29,0,0,1,1.59-.63c1.27,0,4.66,3,4.66,4.23,0,1.8-6.89,11.76-6.89,12.18,0,.11.21.21.43.21a1,1,0,0,0,.52-.1c3.08-1.59,17.27-14.3,19.18-14.3a1.91,1.91,0,0,1,1.26.53c1.28,1.06,3.08,2,3.08,3.49a3,3,0,0,1-.64,1.59c-1.8,2.33-12,15.57-12.18,16l18.43-10.17A36.89,36.89,0,0,1,1153,781c1.49,0,1.27,1.69,2,3.28a4.9,4.9,0,0,1,.63,1.91c0,.63-2.65,2.33-3.28,2.65Z"/><path class="cls-1" d="M1174.31,780.25c-.74,0-.53-1.28-1.38-1.28-3.07,0-17.79,11.34-17.79,15,0,.21.22.31.43.31,3.28,0,11.65-7.09,16.94-12a3.68,3.68,0,0,1,2.33-1.37c.85,0,1.59.74,2.55,1.16s1.8.74,1.8,1.8a4.76,4.76,0,0,1-.32,1.49c-.85,2.22-9.11,12.92-12,16.2-3.07,3.6-17.9,25.1-17.9,26.06,0,.31.63,1.06.63,1.58a.79.79,0,0,1-.42.74c-.74.54-5.72,5.83-10.38,9.64a5.6,5.6,0,0,1-3.28,1.59c-2.23,0-2.76-4.13-2.76-5.08,0-1.7.85-3.08,1.7-5,5.3-9.32,18.74-24.78,23.09-29.55a.9.9,0,0,0,.31-.63c0-.32-.21-.43-.63-.43a1.12,1.12,0,0,0-.53.11c-1,.42-8,3-9.64,3.28-1.37,0-3.28-2.54-3.81-4.13,0-9.85,8.69-17.58,14.09-22s13.45-8,17.58-8.79a21.64,21.64,0,0,1,3.49-.32c3,0,6.57,1.06,6.57,4.24a5.61,5.61,0,0,1-.42,2C1184.27,776.33,1174.31,780.25,1174.31,780.25Z"/></svg>