<svg id="Layer_1" data-name="Layer 1" xmlns="http://www.w3.org/2000/svg" viewBox="0 0 1284.3 958.64"><defs><style>.cls-1{fill:#f78f21;}.cls-2{fill:#7c51a1;}</style></defs><path class="cls-1" d="M336.54,131.58c-20.31,15.77-34.7-3.27-34.7-3.27s4.46,26-9.73,37c-17.75,13.77-54.69-16.39-54.69-16.39s20.05,43.27,2.31,57c-14.2,11-38.24.26-38.24.26s14.88,18.65-5.44,34.42-85.47-19.16-85.47-19.16L207.37,284l84.2-65.36,84.19-65.35L339.18,44S356.86,115.81,336.54,131.58Z"/><polygon class="cls-1" points="213.83 288.81 234.99 301.41 387.47 183.05 379.78 160 213.83 288.81"/><polygon class="cls-2" points="239.53 250 235.99 233.4 222.32 228.73 223.64 243.1 239.53 250"/><polygon class="cls-2" points="333.03 177.42 329.49 160.83 315.82 156.16 317.14 170.52 333.03 177.42"/><polygon class="cls-2" points="287.55 212.72 284.01 196.13 270.34 191.46 271.66 205.82 287.55 212.72"/><polygon class="cls-2" points="246.03 141.85 247.79 162.27 228.45 155.5 226.69 135.08 246.03 141.85"/><circle class="cls-2" cx="114.44" cy="223.4" r="5.3"/><circle class="cls-2" cx="200.1" cy="206.04" r="5.3"/><circle class="cls-2" cx="301.64" cy="127.23" r="5.3"/><circle class="cls-2" cx="339.18" cy="44.03" r="5.3"/><path class="cls-2" d="M1030.57,675.26c-8.45-25.22-151.79-151.76-397.1-69.42-42.92,12.84-89.6,30.85-120.33,43.35-23.82,9.69-49,16.06-74.74,16.71-136,3.45-164.81-70.52-166-130.42-.67-32.57,8.06-64.83,22.65-94,72.52-144.71,217.36-197.87,236.12-202.69,18.5-4.76,22.63,7.19,20.66,19.19C545.68,295.19,496.11,360.16,461,379.6c0,0-6.53,10.74,7.48,10.27s164-102.86,92-164.46C459.28,138.6,254,300,212.07,421c-96,291.5,185.11,305.63,293,258.39,4.45-1.95,39.37-15.93,43.44-17.72,61.35-26,304.44-117.7,415,46.13,5.69,8.43,17.25,10.71,26.71,6.95C1009.3,707.21,1036.52,693,1030.57,675.26Z"/><path class="cls-2" d="M972.41,425.28c-11.48.15-6.11,26.26-6.94,37.14-3,38.89-52.54,66.38-64.46,66.3s-44.28-15.35-26.57-80.24S984.82,296,936.06,290.65c-57.74-3.58-125.31,149.85-127.25,129.54s54.26-139,26.45-144c-46.84-3.57-158.92,255-179.25,278.06-17.9,20.28-5.7-95.68-1.23-115,66-18.79,71.56-61.49,61.33-54.69-9.51,6.33-18.66,20.23-56.92,36.34,12.95-51.9,29.07-104.43,20.88-105.95-15.21-2.8-12.27,4.73-97.53,124.22-1.63,2.29-3.14,4.26-4.73,6.47-2.44.56-4.66,1.12-7.2,1.67-120.07,26.39-138.45,70.08-138.45,70.08s-35.66,60.23,28.26,66.34c52.73,5,109.18-70.43,146-131.72,6.12-1.89,12.14-3.65,18-5.22-20.81,67.13,2.13,160,46.2,119.82C723,504.45,745,447.21,759.93,414a1.51,1.51,0,0,1,2.88.85c-3,21,10,49.8,26.09,51,21,.36,56-41.89,56-41.89s-4,17.52-5,28.81c-3,35-13.46,97.5,58.47,103s98.94-46.77,101.22-76.63S990.43,424.16,972.41,425.28ZM452,543.15c-3.19-20,50.13-51.59,109-75.09C490.68,558.83,455.29,563.83,452,543.15ZM647,376.46s11.09-25.29-17.79,55.37c-4.16,1.32-8.64,2.66-13.26,4C635,402.43,647,376.46,647,376.46Z"/><path class="cls-1" d="M143.68,763c6.06,0,11.25.86,15.33,2.59s13.1,9.89,13.1,16.69-11.37,13.35-15.94,15.2-13,5.93-14.84,6.43c-.24.12-.37.12-.37.24s11.25,1.86,11.25,12.61c0,16.81-45.23,38.06-63.77,38.06a24.77,24.77,0,0,1-3-.24c-1.48-.25-4.69-1.36-4.69-6.43a9.46,9.46,0,0,1,.61-3.34L76,851.69c-1.6,2-3.08,3.7-4.94,3.7,0,0-7.41-2.1-7.41-6a4.24,4.24,0,0,1,.49-2c1.85-4,18.42-25.58,21.88-30.53,2.84-4.07,22.74-28.42,29-35.59a157.32,157.32,0,0,0-40.66,17.55,5.38,5.38,0,0,1-3,1.11c-2.22,0-4.94-3.21-4.94-5.93s2-5.44,2.84-6.43C80,776.79,118.35,763,143.68,763ZM85.47,840.32c14.21-2.35,42.89-12.73,53-25.83,0,0-.12-1.37-.86-1.37-18.66,0-28.8,3.59-28.8,3.59-.74,0-1.11-.74-1.36-1.85l-.49-3c-7.91,10.26-16.56,21.26-22.75,29.17Zm30.16-39.43c14.34-4.7,40.05-13.47,47.33-20.64-4.69-3.09-8.65-3.21-18.29-3.21a101.77,101.77,0,0,0-19.4,1.85c1.24.62,2.34,1.36,2.72,1.48a3.69,3.69,0,0,1,1,2.6,2.62,2.62,0,0,1-1,2.1S122.8,791.75,115.63,800.89Z"/><path class="cls-1" d="M167.27,849a8.4,8.4,0,0,1,.24-2.11,3.43,3.43,0,0,0,.25-1c0-.25-.12-.5-.37-.5-3.71,2.35-10.5,5.44-13.1,5.44-2.22,0-5.56-4.08-5.56-6.55,0-19.53,31.15-35.1,41.9-35.1a7.13,7.13,0,0,1,1.85.25,7.5,7.5,0,0,1,4.57,6.42c0,2.6-6.79,4.7-6.79,5.57,0,.37.61,1,1.11,1.23s.62.75.62,1.36a2.78,2.78,0,0,1-.25,1c-.5.74-8.53,12.36-8.9,13.6.37,0,8-4.46,8.9-5l11.61-6.3a40.64,40.64,0,0,1,3.84-2.1c1.73,0,1.48,2,2.35,3.83a5.77,5.77,0,0,1,.74,2.22c0,.74-3.09,2.72-3.83,3.09-1.24.87-16.44,10.88-16.44,10.88-1.85,1.24-13.59,8-18,8A4.62,4.62,0,0,1,167.27,849Zm15.2-26a.69.69,0,0,0-.74-.61c-4.45.61-18,11.12-18,15.69a.33.33,0,0,0,.38.37C168.38,838.09,182.47,824.5,182.47,823Z"/><path class="cls-1" d="M254.89,825.24c1.73,0,1.48,2,2.34,3.83a5.77,5.77,0,0,1,.74,2.22c0,.74-3.08,2.72-3.83,3.09-1.6,1.12-15.82,10.38-19.9,12.36s-13.72,5.69-17.92,5.93a5.74,5.74,0,0,1-4.94-2.59,8.3,8.3,0,0,1-1.24-4.08c0-6.55,9.64-13.47,15.21-19.65.12-.13-.25-.49-.74-.62-.26,0-.62-.12-1.12-.12a6.43,6.43,0,0,0-3,.61c-3.7,3-22.86,14-29.41,19a4.65,4.65,0,0,1-1.6.49,1.54,1.54,0,0,1-1.37-.74s-.73-5.68-.73-7.29a1.27,1.27,0,0,1,.61-1.24c7.79-4.32,23.73-12.85,23.73-14.08,0-.75-.37-1.49-.37-2.35,0-1.24.49-3.22,2.84-5.19,3.22-2.6,13.84-8.41,16.94-9.4a5.5,5.5,0,0,1,1.23-.24c2,0,2.6,1.73,3,2.1s1.73,1.11,1.73,2.35c0,.49-.25.86-.75,1.48-2,2-3.82,4-3.82,4a1.25,1.25,0,0,0-.13.5c0,.24.13.49.62.49s1.73-.25,3.33-.25,3.22.25,4.09,1.36a8,8,0,0,1,2,4.95,3.94,3.94,0,0,1-1.73,3.34,82.38,82.38,0,0,0-9.88,8.4,16,16,0,0,0-3,4,1.13,1.13,0,0,0-.37.62c0,.13.12.13.74.13,3.21-.37,19.52-9.52,22.86-11.25A40.64,40.64,0,0,1,254.89,825.24Z"/><path class="cls-1" d="M310.61,773.7c2.84,0,3.33,1.61,4.57,2.47a4.74,4.74,0,0,1,1.86,3.71c-2.47,12.85-20.76,27.07-28.43,34.73-.74.62-1,1-1,1.23s.25.25.49.25c.63,0,13.85.62,14.84.62.49,0,.74.12.74.37-.13,3.46-3.84,8-6.8,8-.49,0-8.52,0-9,.13-.25.12-1.24,0-1.24.49,0,.13.13.25.25.49.62.87.62,2,.62,3.71-1.12,10.63-27.32,26-37.21,26-2.47,0-4.2-3.59-4.81-4.33a7.29,7.29,0,0,1-.87-3.58C244.61,831.79,293.55,773.7,310.61,773.7Zm-32.38,52.65a1.46,1.46,0,0,0-1.36-1.36c-.87,0-15.33,11.74-15.57,11.62,0,0-2.6,3.46-2.6,6.18.13.49.37.74.74.74C264,843.53,278.23,830.18,278.23,826.35ZM302,790.14c.49-.62.62-.87.62-1.11a.27.27,0,0,0-.25-.25c-3.34,0-25.21,21.87-27.56,27.81C275.63,816.59,296.77,796.44,302,790.14Z"/><path class="cls-1" d="M337.3,827.34a39.35,39.35,0,0,1,3.83-2.1c1.73,0,1.48,2,2.35,3.83a5.71,5.71,0,0,1,.73,2.22c0,.74-3.08,2.72-3.82,3.09-1.24.87-16.32,10.88-16.32,10.88-6.42,3.71-15.2,9.27-19.4,9.27-7.66,0-14.09-2.84-14.09-9.64,0-6.18,10.75-11.37,12.36-12.36.74-.37,2.1-1,2.35-1.48,0-.25-.25-.5-1-.5-4.21-.74-5.94-1.23-5.94-6.55,0-3.33,1.86-6.3,12.74-12.11,9.64-5.19,17.55-6.18,21-6.18s8.91,2.1,8.91,6.06c0,5.68-13.85,8.28-13.85,8.28-1.36,0-.87-1.61-2-1.86-.37,0-11.13,3.59-12.12,4.21-.86.37-1.73,1.11-1.73,1.48s.37.24,2.84.24a73,73,0,0,0,7.91-.37c1.86.13,2.6,3.47,2.6,5.32,0,1.24-.12,1.85-1.73,1.85-1.24,0-21,9.4-21,11,0,.37.12.5,1.61.5,5.68,0,15.82-5.44,15.82-5.44Z"/><path class="cls-1" d="M346.55,848.35a1.2,1.2,0,0,0,.37-.62c0-.12,0-.25-.25-.25a5.63,5.63,0,0,0-.74.25A22.44,22.44,0,0,1,334.81,851c-3.34,0-4.2-4.21-4.2-5.57,0-8.9,15.2-22.61,17.67-24.71,13-10.63,26.58-11.25,28.18-11.25,2.1,0,3,0,5.31,3.46a7.87,7.87,0,0,1,1.49,3.83c0,1.36-.62,2.47-1.49,2.6-9.51,1.36-16.8,3-25.09,9-1.23.74-9.76,8.52-9.76,10.75a.32.32,0,0,0,.37.37.45.45,0,0,0,.37-.12c7.54-3,13.6-7.79,23.61-17.06a2.16,2.16,0,0,1,1.48-.49c2,0,4.33,1.73,4.94,2.1a2.36,2.36,0,0,1,1.86,2,2.56,2.56,0,0,1-.87,1.73l-25.58,27.8a5.16,5.16,0,0,1,1.11.62,8.15,8.15,0,0,1,3.34,6.8c0,13.59-33,35.72-44.5,35.72a.92.92,0,0,1-.49.12c-.86,0-1.61-1.61-2.47-3.09a5.08,5.08,0,0,1-1.11-2.47,1.87,1.87,0,0,1,.24-1.11L332,865.4c-7.91,3.47-17.43,8.16-18.92,9a1.77,1.77,0,0,1-.73.25c-1.49,0-2.35-2.48-3-4.46a4.42,4.42,0,0,1-.25-1.73,3.51,3.51,0,0,1,1.12-2.72c1.36-.61,10.5-6,16.31-8.4a57.43,57.43,0,0,1,15.69-4.08Zm2.84,14.83a1.71,1.71,0,0,0,.25-.74c0-.62-.74-1.11-2-1.11l-18.91,20.51a53,53,0,0,0,10.51-6.43A42.81,42.81,0,0,0,349.39,863.18Z"/><path class="cls-1" d="M432.31,827.46a43,43,0,0,1,3.83-2.1c1.73,0,1.36,1.86,2.23,3.71a5.6,5.6,0,0,1,.74,2.22c0,.74-3.09,2.72-3.83,3.09l-15.45,10.51c-4.2,2.84-12.48,7-16.19,7a1.83,1.83,0,0,1-1.61-.74c-1.23-1.61-2.59-3.09-2.59-4.94a2.62,2.62,0,0,1,.25-1.36c.86-2.47,2.47-5.56,2.59-6.06,0-.24,0-.37-.25-.37a2.44,2.44,0,0,0-1,.5c-3.09,2.59-15.82,11.86-20.28,11.86-1.85,0-4.2-3.09-4.2-4.82,0-10.63,18.79-32.5,25-32.5,2.47,0,6.18,2.71,6.18,4.2,0,1.73-13.6,12.61-13.6,17.43,0,.24.13.49.37.49a1.62,1.62,0,0,0,.87-.37c1.11-.74,14.95-11.37,17.43-13.35s5.68-6.06,6.67-6.92a5,5,0,0,1,3.22-1.61c1.85,0,5.81,2.84,5.81,4.58a1.38,1.38,0,0,1-.38,1c-1.48,1.61-14.46,16.07-15.2,17.55a3.94,3.94,0,0,0-.62,1.36.33.33,0,0,0,.38.38,1.25,1.25,0,0,0,.61-.13Z"/><path class="cls-1" d="M470,827.34a40.64,40.64,0,0,1,3.84-2.1c1.73,0,1.48,2,2.34,3.83a5.66,5.66,0,0,1,.75,2.22c0,.74-3.09,2.72-3.83,3.09-1.24.87-16.32,10.88-16.32,10.88-6.43,3.71-15.2,9.27-19.4,9.27-7.66,0-14.1-2.84-14.1-9.64,0-6.18,10.76-11.37,12.37-12.36.74-.37,2.1-1,2.34-1.48,0-.25-.24-.5-1-.5-4.2-.74-5.93-1.23-5.93-6.55,0-3.33,1.85-6.3,12.73-12.11,9.64-5.19,17.55-6.18,21-6.18s8.9,2.1,8.9,6.06c0,5.68-13.84,8.28-13.84,8.28-1.36,0-.87-1.61-2-1.86-.37,0-11.12,3.59-12.11,4.21-.87.37-1.73,1.11-1.73,1.48s.37.24,2.84.24a73.22,73.22,0,0,0,7.91-.37c1.85.13,2.6,3.47,2.6,5.32,0,1.24-.12,1.85-1.73,1.85-1.24,0-21,9.4-21,11,0,.37.12.5,1.6.5,5.69,0,15.82-5.44,15.82-5.44Z"/><path class="cls-1" d="M579.85,798.29c-2.72,0-8.29-4.94-8.29-6.92,0-2.22,19-9.63,19-10.63,0-.24-.25-.37-.86-.37-25,0-57.23,17.31-57.23,18.54,0,1,3.09,1.24,7,1.24,6.31,0,15-.87,17.06-1.73a5.57,5.57,0,0,1,2.72-.74c1.48,0,1.61,1,1.61,1s3.95,5.93,3.95,7.78c0,1.12-1.11,1.73-2.71,2.23-2.35,1-22.87,12-26.21,13.59-5.19,2.6-22.12,15.45-22.12,18.66,0,.5.37,1,1.85,1,12.36,0,31.27-12.73,42.89-19.77a5.73,5.73,0,0,1,2.72-1.12c1.48,0,2.84,2.11,2.84,3.47a17.93,17.93,0,0,1-1.24,4.94c-2.1,6.18-2.59,7.91-13.71,15.94a61.41,61.41,0,0,1-16.69,8.28c-4.7,6.43-9.88,12.86-13.72,19.16,0,0-.24,1.36-1.23,1.36-1.86,0-5.32-1.11-5.32-5.07,0-3.46,2.35-7.91,5.56-12.48-11.86-.74-15.69-14.34-15.69-17.67,0-7.42,7.54-14.22,12.11-17.68,5.19-3.95,18.17-10.87,18.17-10.87-7.17-.62-13.6-4.08-13.6-12.73,0-6.18,5.31-10.14,7.54-11.74A111.63,111.63,0,0,1,569,768.39c4.32-5.94,9.15-12.73,12.23-17.8,0,0,.25-1.36,1.24-1.36a6,6,0,0,1,5.2,6.06c0,3-2.23,7-4.95,11.36a19.34,19.34,0,0,1,2.22-.12c13.72,0,18.05,11.25,18.05,14.46C603,793.23,579.85,798.29,579.85,798.29Z"/><path class="cls-1" d="M697.85,791.13c-3.09,0-9.27-5.44-9.27-7.67,0-2.47,21.13-10.75,21.13-11.86,0-.25-.24-.37-.86-.37-27.81,0-63.65,19.15-63.65,20.64,0,1,3.46,1.36,7.78,1.36,7,0,16.69-1,19-2a6.74,6.74,0,0,1,3-.74c1.6,0,1.85,1,1.85,1-.25.12,4.33,6.67,4.33,8.65,0,1.23-1.24,2-3,2.47-2.6,1.11-25.46,13.35-29.17,15.2-5.68,2.85-24.59,17.06-24.59,20.64,0,.62.49,1.11,2.1,1.11,13.72,0,34.73-14.08,47.7-22a6.34,6.34,0,0,1,3-1.24c1.61,0,3.21,2.35,3.21,3.95,0,1.12-.49,2.6-1.48,5.44-2.35,6.92-2.84,8.78-15.2,17.68S634.82,855.89,630,855.89c-14.09,0-18.54-15.82-18.54-19.53,0-8.28,8.28-15.69,13.47-19.65,5.68-4.33,20.14-12.11,20.14-12.11C637,803.86,630,800,630,790.38c0-6.79,5.81-11.24,8.28-13,30.28-20.77,61.79-21.51,65.13-21.51,15.33,0,20,12.49,20,16.07C723.43,785.56,697.85,791.13,697.85,791.13Z"/><path class="cls-1" d="M696.1,812.51c2.35,0,5.2,1.48,5.2,3.09,0,5.68-2.6,11-2.6,11.86a.26.26,0,0,0,.24.25,1.89,1.89,0,0,0,.75-.37c4.08-3.46,18.66-17.18,23.23-17.18a1.71,1.71,0,0,1,1.12.62c1.48,1.48,3.83,3.83,3.83,5.68a1.94,1.94,0,0,1-.87,1.61c-3,2.22-23.23,19-25.46,20.76S688,851.44,687,852.43a4.13,4.13,0,0,1-2.72,1.36,2.47,2.47,0,0,1-1.24-.37c-1.23-.87-3.83-2-3.83-4a2.78,2.78,0,0,1,.25-1c5.31-11.49,10-20.88,14.34-34.85A3,3,0,0,1,696.1,812.51Z"/><path class="cls-1" d="M769,827.34a39.35,39.35,0,0,1,3.83-2.1c1.73,0,1.49,2,2.35,3.83a5.83,5.83,0,0,1,.75,2.22c0,.74-3.1,2.72-3.84,3.09-1.23.87-16.32,10.88-16.32,10.88-6.42,3.71-15.19,9.27-19.39,9.27-7.67,0-14.1-2.84-14.1-9.64,0-6.18,10.76-11.37,12.37-12.36.73-.37,2.1-1,2.34-1.48,0-.25-.24-.5-1-.5-4.2-.74-5.93-1.23-5.93-6.55,0-3.33,1.85-6.3,12.73-12.11,9.64-5.19,17.55-6.18,21-6.18s8.9,2.1,8.9,6.06c0,5.68-13.84,8.28-13.84,8.28-1.36,0-.87-1.61-2-1.86-.37,0-11.13,3.59-12.11,4.21-.87.37-1.73,1.11-1.73,1.48s.37.24,2.84.24a73.22,73.22,0,0,0,7.91-.37c1.85.13,2.6,3.47,2.6,5.32,0,1.24-.13,1.85-1.73,1.85-1.24,0-21,9.4-21,11,0,.37.13.5,1.61.5,5.69,0,15.82-5.44,15.82-5.44Z"/><path class="cls-1" d="M805.08,845.26s-14.45,9.39-21.38,9.39c-1,0-4.94-1.48-4.94-4.32a3.08,3.08,0,0,1,.49-1.61l5.57-10c0-.25-.13-.37-.25-.37a2.39,2.39,0,0,0-1,.37c-.86.49-16.44,13-18.78,14.58a1.53,1.53,0,0,1-.75.13c-1.23,0-6.92-3-6.92-4.45a2,2,0,0,1,.5-1.24l25.83-35.59a3.87,3.87,0,0,1,1.85-.74c1.49,0,5.44,3.46,5.44,4.94,0,2.1-8,13.72-8,14.21,0,.13.24.25.49.25a1.15,1.15,0,0,0,.62-.12C787.41,828.82,804,814,806.2,814a2.29,2.29,0,0,1,1.48.62c1.48,1.23,3.58,2.35,3.58,4.08a3.55,3.55,0,0,1-.74,1.85c-2.1,2.72-14,18.17-14.21,18.66l21.51-11.86a39.25,39.25,0,0,1,3.82-2.1c1.73,0,1.49,2,2.36,3.83a5.77,5.77,0,0,1,.74,2.22c0,.74-3.1,2.72-3.84,3.09Z"/><path class="cls-1" d="M845.49,838.09A98.72,98.72,0,0,1,835,844.76c-1.85,1.24-10.87,5.44-15.32,5.44a4.76,4.76,0,0,1-4-1.73c-1.23-1.61-2.47-3.33-2.47-5.68a7.29,7.29,0,0,1,.5-2.72c1.48-3.71,6.92-11.74,9.76-15.45,1.48-2,11.37-13.6,21-24.84-13.23,1.11-22,2.47-33,3.21-.62,0-1.23.25-1.73.25s-.74-.13-.74-.62a3.76,3.76,0,0,1,.49-1.61c1.36-2.84,4.08-8.28,7.42-8.89,0,0,16.06-1.86,36.71-2.85,5.18-5.68,9.26-10.38,10.38-11.37s2.1-2.22,3.09-2.22c1.23,0,5.81,3.58,5.81,5.31a2.39,2.39,0,0,1-.38,1.24l-1.73,2.47-3.45,4.08c3.33-.13,6.79-.13,10.25-.13,4.7,0,24,.38,24,2.72,0,.38-.25.75-.74,1.24a59.39,59.39,0,0,1-5.44,4.45c-.87.74-1.49,1.11-3.83,1.11-13.35,0-23.86.25-32.63.74-8,9.64-17.3,21-18.29,22.25-1.86,2.1-10.26,13.47-11.12,14.83a1.58,1.58,0,0,0-.38.86.33.33,0,0,0,.38.38,4.23,4.23,0,0,0,1.72-.75l16.81-9.14a41.82,41.82,0,0,1,3.83-2.1c1.74,0,1.49,2,2.35,3.83a5.77,5.77,0,0,1,.74,2.22c0,.74-3.09,2.72-3.83,3.09C850.68,834.63,846.6,837.35,845.49,838.09Z"/><path class="cls-1" d="M972.51,807.19c-3.33-.37-9.76-1.48-9.76-4.69a3.81,3.81,0,0,1,1.61-2.6c11.25-6.3,20.52-19.53,21.26-20.64a2,2,0,0,0,.24-.62c0-.49-.74-.74-1.73-.74-25.58,0-57.84,32.38-66.61,57.72a3.63,3.63,0,0,0-.25,1.48c0,.74.37,1,.87,1,8.65,0,29-14.7,31.51-16.68,2.1-1.73,3.47-2.6,4.45-2.6,2.22,0,3.22,3.21,3.22,5.93a6.64,6.64,0,0,1-.63,3.09c-6.67,15.21-22.12,24.6-34.6,24.6-8.9,0-13.1-4.45-17.3-11.87a16.72,16.72,0,0,1-2.1-8.77c0-30.78,46.09-64.64,77.61-64.64,2,0,3.46.12,5.32.25,3,.24,4.32.62,8.77,7a15.68,15.68,0,0,1,3.21,9.15C997.6,792.48,978.32,807.19,972.51,807.19Z"/><path class="cls-1" d="M976,849a8.31,8.31,0,0,1,.25-2.11,3.81,3.81,0,0,0,.25-1c0-.25-.13-.5-.37-.5-3.71,2.35-10.51,5.44-13.1,5.44-2.22,0-5.56-4.08-5.56-6.55,0-19.53,31.14-35.1,41.89-35.1a7.27,7.27,0,0,1,1.86.25,7.5,7.5,0,0,1,4.57,6.42c0,2.6-6.8,4.7-6.8,5.57,0,.37.62,1,1.11,1.23s.62.75.62,1.36a3,3,0,0,1-.24,1c-.5.74-8.53,12.36-8.9,13.6.37,0,8-4.46,8.9-5l11.61-6.3a40.55,40.55,0,0,1,3.83-2.1c1.73,0,1.49,2,2.36,3.83a5.71,5.71,0,0,1,.73,2.22c0,.74-3.09,2.72-3.83,3.09-1.24.87-16.43,10.88-16.43,10.88-1.86,1.24-13.6,8-18.05,8A4.62,4.62,0,0,1,976,849Zm15.21-26a.69.69,0,0,0-.75-.61c-4.45.61-18,11.12-18,15.69a.32.32,0,0,0,.37.37C977.08,838.09,991.17,824.5,991.17,823Z"/><path class="cls-1" d="M1039.48,838.09a99.74,99.74,0,0,1-10.51,6.67c-1.86,1.24-10.88,5.44-15.32,5.44a4.76,4.76,0,0,1-4-1.73c-1.24-1.61-2.48-3.33-2.48-5.68a7.5,7.5,0,0,1,.5-2.72c1.48-3.71,6.92-11.74,9.76-15.45,1.48-2,11.37-13.6,21-24.84-13.22,1.11-22,2.47-33,3.21-.61,0-1.23.25-1.72.25s-.75-.13-.75-.62a3.91,3.91,0,0,1,.49-1.61c1.37-2.84,4.09-8.28,7.42-8.89,0,0,16.07-1.86,36.71-2.85,5.19-5.68,9.27-10.38,10.38-11.37s2.1-2.22,3.09-2.22c1.24,0,5.81,3.58,5.81,5.31a2.47,2.47,0,0,1-.37,1.24l-1.73,2.47-3.46,4.08c3.33-.13,6.79-.13,10.26-.13,4.69,0,24,.38,24,2.72,0,.38-.24.75-.74,1.24a57.91,57.91,0,0,1-5.44,4.45c-.86.74-1.48,1.11-3.83,1.11-13.35,0-23.85.25-32.63.74-8,9.64-17.3,21-18.29,22.25-1.85,2.1-10.26,13.47-11.12,14.83a1.62,1.62,0,0,0-.37.86.33.33,0,0,0,.37.38,4.3,4.3,0,0,0,1.73-.75l16.81-9.14a39.35,39.35,0,0,1,3.83-2.1c1.73,0,1.48,2,2.35,3.83a5.77,5.77,0,0,1,.74,2.22c0,.74-3.09,2.72-3.84,3.09C1044.66,834.63,1040.58,837.35,1039.48,838.09Z"/><path class="cls-1" d="M1081.86,827.34a39.35,39.35,0,0,1,3.83-2.1c1.73,0,1.48,2,2.35,3.83a5.77,5.77,0,0,1,.74,2.22c0,.74-3.09,2.72-3.83,3.09-1.24.87-16.32,10.88-16.32,10.88-6.42,3.71-15.2,9.27-19.4,9.27-7.66,0-14.09-2.84-14.09-9.64,0-6.18,10.75-11.37,12.36-12.36.74-.37,2.1-1,2.35-1.48,0-.25-.25-.5-1-.5-4.2-.74-5.94-1.23-5.94-6.55,0-3.33,1.86-6.3,12.74-12.11,9.64-5.19,17.55-6.18,21-6.18s8.91,2.1,8.91,6.06c0,5.68-13.85,8.28-13.85,8.28-1.36,0-.86-1.61-2-1.86-.37,0-11.13,3.59-12.11,4.21-.87.37-1.74,1.11-1.74,1.48s.37.24,2.84.24a73,73,0,0,0,7.91-.37c1.86.13,2.6,3.47,2.6,5.32,0,1.24-.12,1.85-1.73,1.85-1.24,0-21,9.4-21,11,0,.37.12.5,1.61.5,5.68,0,15.82-5.44,15.82-5.44Z"/><path class="cls-1" d="M1133.26,825.24c1.74,0,1.49,2,2.35,3.83a5.77,5.77,0,0,1,.74,2.22c0,.74-3.09,2.72-3.83,3.09-1.6,1.12-15.82,10.38-19.9,12.36s-13.72,5.69-17.92,5.93a5.74,5.74,0,0,1-4.94-2.59,8.3,8.3,0,0,1-1.24-4.08c0-6.55,9.64-13.47,15.21-19.65.12-.13-.25-.49-.74-.62-.26,0-.63-.12-1.12-.12a6.43,6.43,0,0,0-3,.61c-3.7,3-22.86,14-29.41,19a4.65,4.65,0,0,1-1.6.49,1.54,1.54,0,0,1-1.37-.74s-.73-5.68-.73-7.29a1.27,1.27,0,0,1,.61-1.24c7.79-4.32,23.73-12.85,23.73-14.08,0-.75-.37-1.49-.37-2.35,0-1.24.49-3.22,2.84-5.19,3.22-2.6,13.84-8.41,16.94-9.4a5.5,5.5,0,0,1,1.23-.24c2,0,2.6,1.73,3,2.1s1.73,1.11,1.73,2.35c0,.49-.25.86-.75,1.48-2,2-3.82,4-3.82,4a1.25,1.25,0,0,0-.13.5c0,.24.13.49.62.49s1.73-.25,3.33-.25,3.22.25,4.09,1.36a8,8,0,0,1,2,4.95,3.94,3.94,0,0,1-1.73,3.34,82.38,82.38,0,0,0-9.88,8.4,16,16,0,0,0-3,4,1.13,1.13,0,0,0-.37.62c0,.13.12.13.74.13,3.21-.37,19.52-9.52,22.86-11.25A41.82,41.82,0,0,1,1133.26,825.24Z"/><path class="cls-1" d="M1149.19,845.26s-14.83,9.39-25.09,9.39c-1.6,0-1.73-.74-2.47-1.48a7.83,7.83,0,0,1-1.48-4.2c0-10.88,12.61-22.87,21.5-32.51a4.14,4.14,0,0,1,3-1.36c2,0,4,1.36,5.56,2.72,1.24,1.11,1.73,1.86,1.73,2.47a1.7,1.7,0,0,1-.61,1.12c-.74.61-12,14.09-13.6,16.19a6.42,6.42,0,0,0-1.36,2.59c0,.25.12.37.62.37,3.58-1.48,7.53-3.58,7.53-3.58l18-9.64a39.44,39.44,0,0,1,3.84-2.1c1.72,0,1.47,2,2.34,3.83a5.6,5.6,0,0,1,.74,2.22c0,.74-3.08,2.72-3.83,3.09C1164.4,835.25,1149.19,845.26,1149.19,845.26Zm13.72-41c0,3.95-6.55,10.63-11.25,10.63-1.23,0-2.59-1.86-2.59-3,0-5.19,8.16-10.75,11-10.75C1161.06,801.14,1162.91,803.11,1162.91,804.23Z"/><path class="cls-1" d="M1198.37,845.26s-14.46,9.39-21.38,9.39c-1,0-4.94-1.48-4.94-4.32a3,3,0,0,1,.49-1.61l5.56-10c0-.25-.12-.37-.24-.37a2.39,2.39,0,0,0-1,.37c-.87.49-16.44,13-18.79,14.58a1.49,1.49,0,0,1-.74.13c-1.23,0-6.92-3-6.92-4.45a2,2,0,0,1,.49-1.24l25.83-35.59a3.94,3.94,0,0,1,1.86-.74c1.48,0,5.44,3.46,5.44,4.94,0,2.1-8,13.72-8,14.21,0,.13.25.25.5.25a1.12,1.12,0,0,0,.61-.12c3.59-1.86,20.15-16.69,22.38-16.69a2.29,2.29,0,0,1,1.48.62c1.48,1.23,3.58,2.35,3.58,4.08a3.64,3.64,0,0,1-.74,1.85c-2.1,2.72-14,18.17-14.21,18.66l21.51-11.86a39.25,39.25,0,0,1,3.82-2.1c1.73,0,1.49,2,2.35,3.83a5.6,5.6,0,0,1,.74,2.22c0,.74-3.09,2.72-3.83,3.09Z"/><path class="cls-1" d="M1239.76,824.37c-.87,0-.61-1.48-1.61-1.48-3.58,0-20.76,13.22-20.76,17.55,0,.25.25.37.5.37,3.83,0,13.59-8.28,19.77-14,1.11-1.11,2-1.6,2.72-1.6,1,0,1.85.86,3,1.36s2.1.86,2.1,2.1a5.38,5.38,0,0,1-.37,1.73c-1,2.59-10.63,15.08-14,18.91-3.58,4.2-20.89,29.29-20.89,30.4,0,.37.74,1.24.74,1.85a.93.93,0,0,1-.49.87c-.86.62-6.67,6.8-12.11,11.24a6.53,6.53,0,0,1-3.83,1.86c-2.6,0-3.22-4.82-3.22-5.93,0-2,1-3.59,2-5.81,6.18-10.88,21.87-28.92,26.94-34.48a1.07,1.07,0,0,0,.37-.74c0-.37-.24-.5-.74-.5a1.25,1.25,0,0,0-.61.13c-1.12.49-9.4,3.46-11.25,3.83-1.61,0-3.83-3-4.45-4.82,0-11.5,10.14-20.52,16.44-25.71s15.69-9.39,20.51-10.26a24.79,24.79,0,0,1,4.08-.37c3.46,0,7.66,1.24,7.66,4.94a6.56,6.56,0,0,1-.49,2.35C1251.38,819.8,1239.76,824.37,1239.76,824.37Z"/></svg>